<svg width="140" height="13" viewBox="0 0 140 13" fill="none" xmlns="http://www.w3.org/2000/svg">
<path d="M0.528 8.144H3.408C3.408 9.328 4.368 9.872 8.016 9.872C11.04 9.872 11.952 9.536 11.952 8.656C11.952 7.728 11.312 7.568 7.68 7.392C2.8 7.168 0.864 6.4 0.864 3.888C0.864 1.424 3.376 0.639999 7.568 0.639999C11.792 0.639999 14.352 1.696 14.352 4.464H11.472C11.472 3.232 10.24 2.928 7.248 2.928C4.416 2.928 3.744 3.2 3.744 4.032C3.744 4.896 4.416 5.056 7.68 5.248C12.096 5.488 14.832 5.728 14.832 8.56C14.832 11.552 12 12.16 7.856 12.16C3.264 12.16 0.528 11.376 0.528 8.144ZM30.9155 3.088H21.9555V5.36H30.9155V7.44H21.9555V9.712H30.9155V12H19.0755V0.799999H30.9155V3.088ZM48.2541 4.912C48.2541 6.736 47.3261 8.08 45.8221 8.672L47.8861 12H44.4941L42.6861 9.008H38.0461V12H35.1661V0.799999H43.9661C46.5101 0.799999 48.2541 2.416 48.2541 4.912ZM38.0461 3.216V6.592H43.1661C44.0301 6.592 45.3741 6.592 45.3741 4.912C45.3741 3.216 44.0301 3.216 43.1661 3.216H38.0461Z" fill="#D1261E"/>
<path d="M60.5254 0.799999C63.4214 0.799999 65.9654 2.592 65.9654 6.4C65.9654 10.208 63.4214 12 60.5254 12H52.3974V0.799999H60.5254ZM59.4374 9.584C61.6134 9.584 63.0854 9.12 63.0854 6.4C63.0854 3.68 61.6134 3.216 59.4374 3.216H55.2774V9.584H59.4374ZM73.0868 0.799999V12H70.2068V0.799999H73.0868ZM89.403 3.088H80.443V5.36H89.403V7.44H80.443V9.712H89.403V12H77.563V0.799999H89.403V3.088ZM93.4936 8.144H96.3736C96.3736 9.328 97.3336 9.872 100.982 9.872C104.006 9.872 104.918 9.536 104.918 8.656C104.918 7.728 104.278 7.568 100.646 7.392C95.7656 7.168 93.8296 6.4 93.8296 3.888C93.8296 1.424 96.3416 0.639999 100.534 0.639999C104.758 0.639999 107.318 1.696 107.318 4.464H104.438C104.438 3.232 103.206 2.928 100.214 2.928C97.3816 2.928 96.7096 3.2 96.7096 4.032C96.7096 4.896 97.3816 5.056 100.646 5.248C105.062 5.488 107.798 5.728 107.798 8.56C107.798 11.552 104.966 12.16 100.822 12.16C96.2296 12.16 93.4936 11.376 93.4936 8.144ZM123.881 3.088H114.921V5.36H123.881V7.44H114.921V9.712H123.881V12H112.041V0.799999H123.881V3.088ZM131.012 9.584H139.652V12H128.132V0.799999H131.012V9.584Z" fill="#1C212C"/>
</svg>
