<svg width="145" height="141" viewBox="0 0 145 141" fill="none" xmlns="http://www.w3.org/2000/svg">
<path fill-rule="evenodd" clip-rule="evenodd" d="M99.7499 31.0775C98.3558 28.3929 99.0242 23.0424 99.0242 19.4258C99.0242 16.4183 97.8212 9.81586 101.413 9.81962C105.047 9.82339 103.803 16.7638 103.803 19.8118C103.803 23.3408 104.424 28.4654 103.076 31.0757C101.703 31.4324 101.123 31.4334 99.7499 31.0775ZM125.85 17.434C120.941 18.9241 118.802 25.1679 122.844 29.2806C127.062 33.5711 133.533 31.1378 134.923 26.2504C136.043 22.3166 132.864 20.7362 131.125 22.4644C130.215 23.37 130.558 24.8563 129.819 25.8334C129.195 26.658 127.552 27.0797 126.426 26.1017C122.739 22.8993 129.136 21.6304 129.711 21.0515C131.651 19.0964 129.718 16.2592 125.85 17.434ZM122.886 53.8021C122.167 54.9806 119.462 57.4224 118.224 58.6386C114.243 62.5488 117.964 62.2288 121.116 71.964C123.044 77.916 120.377 77.3643 132.771 77.3643C132.771 80.8369 132.965 88.8918 132.604 91.8598C117.134 91.8071 125.657 90.9345 117.869 104.635C116.168 107.63 115.743 107.981 118.224 110.379C119.557 111.667 121.911 113.742 122.815 115.217C122.038 116.744 114.655 123.809 113.001 125.312C111.682 124.714 109.08 121.741 107.982 120.623C104.239 116.811 103.978 120.713 94.7515 123.608C88.5915 125.539 89.3699 123.188 89.3699 136.461C89.3699 141.569 93.4355 140.684 94.021 138.325C94.487 136.448 94.0239 131.28 94.2225 128.863L104.89 124.61C107.11 126.819 111.115 131.704 113.275 131.319C114.212 131.152 128.551 116.937 128.755 115.882C129.188 113.643 123.538 108.899 121.971 107.443C123.424 103.54 124.242 103.603 126.265 96.8074C128.624 96.4798 131.104 96.6963 133.491 96.6926C136.717 96.6869 137.651 96.4742 137.651 93.2002V76.2056C137.651 70.5388 133.882 73.1519 126.399 72.4647C125.633 70.5661 125.195 68.7879 124.467 67.0615C123.656 65.1356 122.651 63.5015 122.032 61.9134C125.724 58.0615 130.395 55.1124 128.189 52.1519L119.486 43.4541C118.475 42.4478 116.402 39.7434 114.564 39.8676C113.303 39.9533 112.487 40.889 112.498 42.2115C112.518 44.7183 119.326 48.7613 122.886 53.8021ZM25.8353 108.96C31.7214 107.173 34.3251 116.688 28.2818 118.185C22.149 119.704 19.3759 110.922 25.8353 108.96ZM50.2222 44.7145C51.6925 43.3214 52.0135 42.8968 51.2906 40.536C47.9253 38.8557 46.1029 42.0713 44.3323 43.8447C32.1186 56.0791 33.4534 52.4428 42.187 61.9134C39.2105 68.1949 40.069 66.8017 37.8033 72.4647C24.813 73.6574 26.5893 67.2611 26.5497 90.1108C26.5441 93.6191 25.7506 96.3367 29.1789 96.6596C31.9614 96.9213 35.1186 96.413 37.9351 96.8093C39.9372 103.553 40.8127 103.629 42.2087 107.422L36.9382 112.88C35.7371 111.34 35.1854 104.234 27.2491 104C21.9928 103.845 18.0515 107.699 17.4311 112.288C16.3223 120.483 25.0031 125.919 31.9379 121.838C34.407 120.384 34.5613 118.671 36.2388 117.182L44.7738 125.469C44.4744 126.881 44.1252 127.586 43.2959 128.549C42.9373 128.325 40.2291 126.749 39.7678 126.604C37.7863 125.983 37.1001 127.152 35.7766 127.982C31.4851 130.674 31.7986 128.446 31.7995 135.28L22.1425 135.271C22.1425 129.091 22.68 130.653 18.2971 128.035C13.4296 125.128 15.3235 126.51 10.5209 128.506L5.96204 120.238C9.70851 117.372 10.1246 119.492 10.0935 113.674C10.0681 108.976 9.95419 108.581 5.90462 107.149C6.21055 105.974 9.47224 99.9655 10.6432 98.7644C12.6963 99.4619 14.1723 101.405 16.2827 100.416C16.3448 100.387 21.4054 97.4249 21.4242 97.4061C21.9354 96.8808 24.7047 84.9947 17.8378 87.6323C17.128 89.707 17.3219 91.0823 17.3219 93.5862C15.7716 96.7537 13.5312 94.5821 11.4942 93.4892C8.21839 91.7299 7.53123 94.1039 6.32633 96.2247C-0.588637 108.397 -2.74615 108.406 5.2824 112.116L5.21933 114.831C-0.231876 119.426 -2.47317 115.575 4.14622 127.127C8.5262 134.771 8.11108 135.76 13.3411 132.566C15.4882 131.255 15.3197 132.101 17.2692 132.895C17.3756 136.144 16.727 137.807 18.4045 139.841C20.8161 140.385 33.7556 140.495 35.4791 139.716C37.2281 138.164 36.5692 135.552 36.6549 133.072C41.3125 129.956 40.4597 134.828 45.5184 134.143C46.6564 132.975 47.2306 131.215 48.4967 129.762C49.9351 130.495 48.9966 130.344 50.1318 130.993C50.6787 131.307 51.0722 131.444 51.8403 131.312C53.4556 131.032 58.0493 125.865 59.3116 124.611C60.9975 124.973 62.7474 126.198 64.5651 126.955C66.3649 127.705 68.0753 128.258 69.9787 128.863C70.2291 131.901 68.8651 137.726 71.1723 139.727C71.7079 140.064 82.775 141.052 84.0449 139.146C87.3103 134.243 76.9191 135.377 74.8321 135.232C74.8321 120.834 75.54 126.871 65.0198 121.876C63.6501 121.225 62.3587 120.535 61.2281 119.861C56.2429 116.892 55.4004 123.41 51.2002 125.312C49.55 123.812 42.1616 116.739 41.3859 115.217C45.1983 109.12 49.8456 110.811 46.3298 104.638C38.5215 90.9316 47.0838 91.8504 31.6583 91.8504C31.0634 89.5554 31.4314 80.386 31.4314 77.3643C47.786 77.3643 38.1864 77.964 46.8485 63.7349C49.7148 59.0273 43.9784 58.134 41.3182 53.8021L50.2222 44.7145ZM90.0938 31.0775C88.6997 28.3929 89.3681 23.0424 89.3681 19.4258C89.3681 16.4183 88.1651 9.81586 91.7571 9.81962C95.3907 9.82339 94.1462 16.7638 94.1462 19.8118C94.1462 23.3408 94.7675 28.4654 93.4195 31.0757C92.0471 31.4324 91.4672 31.4334 90.0938 31.0775ZM80.4368 31.0775C79.0436 28.3929 79.711 23.0424 79.711 19.4258C79.711 16.4183 78.5089 9.81586 82.1001 9.81962C85.7336 9.82339 84.4901 16.7638 84.4901 19.8118C84.4901 23.3408 85.1114 28.4654 83.7634 31.0757C82.39 31.4324 81.8102 31.4334 80.4368 31.0775ZM70.7807 31.0775C69.3866 28.3929 70.0549 23.0424 70.0549 19.4258C70.0549 16.4183 68.8519 9.81586 72.444 9.81962C76.0775 9.82339 74.834 16.7638 74.834 19.8118C74.834 23.3408 75.4544 28.4654 74.1064 31.0757C72.7339 31.4324 72.1541 31.4334 70.7807 31.0775ZM5.38971 14.5978C5.06496 10.5633 10.1123 6.43933 13.6018 5.40575C16.6988 4.48796 28.0502 4.64705 30.8911 5.74934C34.9068 7.30723 38.0047 10.7722 38.561 15.9514C38.9771 19.824 39.7791 19.4578 43.8579 19.4305C46.9473 19.4108 50.0414 19.4258 53.1318 19.4258V29.0819C50.1704 29.0819 47.2062 29.0951 44.2457 29.0791C40.4427 29.0575 38.9771 28.5604 38.5921 32.1827C38.0038 37.7158 35.1544 41.0923 30.8855 42.7537C28.0587 43.8551 17.0565 44.0057 13.9068 43.1858C10.2498 42.2332 5.06307 37.9775 5.38971 33.91C10.3599 33.9015 15.3301 33.9081 20.3003 33.9081C28.6385 33.909 28.9962 35.4029 28.9887 26.7644C28.9868 23.6938 30.573 12.7782 25.4738 14.8595C23.5733 15.6351 24.1597 19.1698 24.1625 21.3565C24.1654 23.932 24.1625 26.5074 24.1625 29.0819L5.62034 29.0791C3.1616 29.065 1.6696 28.6979 0.501416 30.188C-1.32005 32.9414 1.12928 48.4233 19.5275 48.397C26.0508 48.3876 30.8121 48.9411 35.7342 45.6747C39.235 43.3524 42.4525 39.5711 43.2065 33.91H53.1798C53.1054 40.937 62.2438 52.2828 62.7625 56.9047C63.8318 66.4365 61.1716 62.21 56.8011 70.6028C40.9962 100.951 78.7895 127.692 102.374 105.362C111.646 96.5834 113.201 81.3066 107.188 85.0361C105.227 86.2533 106.643 92.6194 101.561 98.8774L101.42 70.5435C106.302 75.8375 103.687 80.8679 109.224 79.3468C112.379 73.632 101.716 63.3537 101.664 63.2332C101.46 62.7748 100.701 57.4939 102.188 55.7271C103.607 54.0411 104.387 53.5479 105.766 51.1993C107.08 48.9608 110.756 39.9778 107.013 38.9225C102.392 37.6207 105.162 43.0888 101.253 49.3985C96.123 57.6775 96.5871 47.4453 96.5871 70.4117C96.5871 81.5014 96.7951 92.7917 96.5683 103.857C87.348 111.878 72.6483 109.302 65.3116 101.878C56.2664 92.7258 55.5698 79.1472 62.7088 70.4192C62.9799 74.242 62.5601 89.6618 62.9103 91.1679C63.4421 93.4544 66.2284 93.6295 67.2309 91.8137C68.0358 90.3546 67.6141 67.7995 67.6141 64.231C67.6141 52.7092 67.6282 54.8733 61.3166 42.5278C59.1337 38.2561 57.9335 37.3543 57.9589 31.7864C57.9721 28.6715 57.3932 20.3982 58.3571 18.1456C60.9871 15.1221 64.182 19.0615 64.8372 21.2727C65.5544 23.6929 65.0894 29.995 65.1563 32.9687C65.2655 37.8466 68.3615 35.4538 72.1503 37.487C79.9567 41.675 76.2987 50.1525 77.3285 55.9784C77.7003 58.0823 82.1651 60.6558 82.1086 53.0358C82.0681 47.5658 82.8362 42.7782 79.7016 38.0518C78.7603 36.6314 77.5375 35.6976 77.0593 34.5567C82.5557 37.087 81.701 36.9702 87.156 34.5548C91.1001 37.6903 93.0807 36.1871 96.8281 34.5501C100.04 37.8579 105.269 36.0534 107.226 33.3471C109.5 30.204 108.682 23.6844 108.682 19.4258C115.914 19.4258 116.076 20.2646 118.32 17.017C124.141 8.59496 138.183 11.722 139.87 22.2771C141.564 32.883 129.682 40.471 120.602 33.8403C117.519 31.5896 118.049 28.1416 113.597 29.7004C111.697 34.9859 120.749 41.7757 129.588 41.049C146.107 39.6907 151.325 16.2724 134.819 8.81241C131.25 7.19992 126.563 6.87704 122.644 8.21466C118.358 9.67654 116.586 11.7569 114.16 14.4462L108.682 14.6147C108.682 10.3072 108.132 8.1563 105.415 6.1607C101.741 3.46192 99.0646 5.67026 96.2491 6.67466C92.5017 2.87077 87.5165 6.38755 86.5959 6.66995C84.2802 4.35994 79.9059 4.33076 77.609 6.67278C74.8858 5.7098 72.3405 3.53911 68.6646 5.99879C66.0364 7.75718 65.3671 9.71137 65.1083 13.6207C60.8036 11.8058 59.7634 11.3606 55.7308 13.9294C53.4895 15.3574 46.4277 14.5968 43.2065 14.5968C42.2218 7.19803 36.4967 1.42207 28.9595 0.307541C26.2174 -0.0972285 17.9065 -0.0868739 15.0119 0.247296C7.52275 1.10955 1.48322 6.79232 0.26232 14.0753C-0.918101 21.1155 3.17948 19.4258 9.09853 19.4258C11.6618 19.4258 22.4747 20.5526 18.8017 15.5608C17.5394 13.8457 8.13179 14.6025 5.38971 14.5978Z" fill="#1C212C"/>
</svg>
