<svg width="150" height="150" viewBox="0 0 150 150" fill="none" xmlns="http://www.w3.org/2000/svg">
<path fill-rule="evenodd" clip-rule="evenodd" d="M119.717 127.796C120.964 126.34 126.859 120.152 128.287 119.611C131.826 122.642 135.621 126.849 138.983 130.233C141.577 132.844 148.609 137.94 142.958 143.239C137.615 148.25 132.173 140.702 129.957 138.487C128.162 136.692 120.351 129.449 119.717 127.796ZM38.7447 67.9258C38.3701 67.7103 39.0252 67.6754 37.536 67.5258L9.77734 67.6105L9.72368 72.4903C10.665 72.5543 37.1661 73.0862 38.7447 72.175V67.9258ZM38.7447 58.2697C37.1247 57.335 11.0481 57.8678 9.77734 57.9544L9.77452 58.2697L9.72368 62.8342C15.4855 63.2239 28.0607 62.8615 35.1997 62.9039C36.6361 62.9123 37.6612 63.1439 38.7447 62.5189V58.2697ZM38.7447 48.6136C37.1247 47.6789 11.0481 48.2117 9.77734 48.2983L9.72745 52.8628L9.72368 53.1781C10.665 53.2412 37.1661 53.773 38.7447 52.8628V48.6136ZM58.0578 38.9575C57.7359 38.7711 57.9016 38.709 57.2022 38.5989C54.3585 38.1499 9.97973 38.628 9.77734 38.6412L9.77452 38.9575L9.72368 43.5211C9.79805 43.5267 53.4972 43.9898 56.8492 43.6067C57.8178 43.4966 56.6421 43.715 57.5185 43.4796C57.606 43.4552 57.7293 43.377 57.7971 43.3535C57.863 43.3309 57.9712 43.2556 58.0578 43.2057V38.9575ZM48.4008 120.457V116.208H10.0927V120.457H48.4008ZM48.4008 130.113V125.864H10.0927V130.113H48.4008ZM10.0927 139.77H91.5935V135.521H10.0927V139.77ZM80.0444 97.7827C78.6653 97.2245 69.3999 87.7426 68.9396 86.853L72.1768 83.3334C74.6365 84.1891 76.087 87.2804 78.1693 88.7131C80.9603 90.6353 83.7494 86.4511 85.1529 85.0476C87.1438 83.0585 95.3164 74.2995 97.1539 73.634L100.415 77.1301L80.0444 97.7827ZM80.1319 83.4191C78.1542 82.6848 76.1266 79.923 74.5837 78.3613C71.9085 75.6513 69.7698 79.0786 68.2985 80.5537C61.8279 87.0403 60.8527 85.7394 67.5078 92.3984C82.0513 106.949 77.5131 107.009 89.8059 94.7225L105.848 78.6804C107.453 76.1464 103.573 73.4702 102.343 72.2399C95.8068 65.6958 97.1887 66.3171 90.8762 72.6174C87.4413 76.0457 83.147 79.9013 80.1319 83.4191ZM82.1539 55.6933C98.9857 53.998 112.01 67.0589 113.468 81.9054C115.121 98.7335 102.313 111.938 87.2173 113.369C70.2263 114.98 57.3161 102.132 55.8213 87.1947C54.1118 70.1097 67.0626 57.2126 82.1539 55.6933ZM79.8457 51.0676C63.0233 53.5179 48.2511 69.287 51.174 89.4294C53.612 106.23 69.4441 120.843 89.5028 118.004C106.209 115.64 121.058 99.6607 118.112 79.6717C115.643 62.9161 99.8573 48.1524 79.8457 51.0676ZM14.7278 14.5509H87.0299V28.9861H86.1856H14.6562L14.7278 14.5509ZM11.5819 9.81788C8.57526 10.7827 9.77829 17.8794 9.77829 21.1891C9.77829 24.0488 8.99887 32.3475 10.9314 33.4752C12.2719 34.2575 88.6904 34.1878 90.2295 33.7021C93.0713 32.8041 91.9079 25.4749 91.9079 22.3478C91.9079 19.4919 92.6864 11.1913 90.7566 10.0617C89.387 9.25968 12.8743 9.40276 11.5819 9.81788ZM108.102 121.229C109.286 120.081 110.729 119.252 111.861 118.315C119.076 112.338 117.96 111.445 121.335 107.997C122.765 108.686 126.126 112.065 126.887 113.505C126.156 114.905 115.016 126.044 113.61 126.779C112.186 126.032 108.788 122.647 108.102 121.229ZM81.1297 46.105C101.763 43.9315 120.855 59.3729 123.073 80.9575C125.205 101.706 109.913 120.678 88.408 122.95C65.8426 125.333 48.2916 108.123 46.2235 88.3093C43.8448 65.5198 61.0635 48.2192 81.1297 46.105ZM5.07167 4.89476H96.686C96.6907 10.8769 96.9534 39.0893 96.5533 42.7256C79.6509 39.0554 68.3305 42.2493 57.334 50.6629C35.8793 67.0786 35.7494 101.843 57.3349 118.406C68.4906 126.967 79.4956 129.885 96.5844 126.341L96.6145 144.863H5.00012L5.07167 4.89476ZM116.459 131.574C117.896 133.491 120.87 136.105 122.736 137.982C125 140.258 127.02 142.284 129.302 144.55C131.405 146.637 132.858 148.801 137.044 149.571C144.265 150.9 150.79 144.513 149.726 137.265C148.966 132.097 142.773 127.314 138.28 122.825C136.351 120.897 133.648 117.827 131.682 116.355C132.887 112.91 134.551 114.098 129.767 109.321C127.837 107.395 125.697 105.486 123.97 103.462C124.484 100.052 127.982 95.5706 128.09 84.9214C128.189 75.1326 125.187 66.6164 119.982 59.2412C118.181 56.6892 116.75 55.3789 114.735 53.2798C112.205 50.6441 108.518 47.9396 105.18 46.2274C104.108 45.6776 102.219 45.2107 101.566 43.9785C101.207 42.5364 102.077 6.10153 101.53 2.31647C101.181 -0.0952041 99.5072 -0.0123676 97.0155 0.00457621L6.2295 0.0139894C-1.04694 -0.00766101 0.118408 0.511008 0.120291 7.67072C0.124056 23.7457 -0.203532 145.89 0.206885 147.765C0.925115 151.05 8.72587 149.743 12.0243 149.743L96.2323 149.747C103.103 149.789 101.566 147.957 101.566 141.315C101.566 136.682 101.614 132.022 101.546 127.393C101.51 124.947 101.984 122.497 104.422 124.582L111.35 131.609C113.629 133.793 114.197 132.336 116.459 131.574Z" fill="white"/>
</svg>
