<svg width="34" height="42" viewBox="0 0 34 42" fill="none" xmlns="http://www.w3.org/2000/svg">
<path fill-rule="evenodd" clip-rule="evenodd" d="M14.9598 2.0605C14.1299 1.72973 12.9202 1.24779 12.3357 1.45085C11.7393 1.65774 11.2356 2.46016 10.825 3.1143C10.7001 3.3133 10.5835 3.49889 10.4781 3.64718C10.3418 3.839 10.2271 4.01431 10.1194 4.17886C9.67671 4.85477 9.34668 5.35895 8.42531 5.73828C7.38922 6.16472 6.59918 6.38022 5.99783 6.54405C4.47443 6.95926 4.20494 7.03268 4.16943 9.57892C4.1667 9.77959 4.16465 9.96543 4.16283 10.1393C4.13461 12.7788 4.13461 12.7855 1.90857 15.6752C1.00154 16.8529 1.29515 17.3152 1.96183 18.3645L2.0135 18.446C2.44664 19.1282 2.78282 19.6065 3.04594 19.9808C3.46406 20.5761 3.70169 20.9141 3.8337 21.3592C4.00578 21.9392 3.99098 22.6813 3.95661 24.3981L3.94546 24.9595C3.92976 25.7817 3.97824 26.2871 4.19242 26.638C4.40478 26.9857 4.79058 27.1938 5.45111 27.4227C5.92818 27.588 6.30238 27.7128 6.62558 27.8207C7.6314 28.1565 8.16333 28.334 8.57894 28.6312C9.04646 28.9656 9.35328 29.4404 10.0033 30.4471C10.075 30.558 10.1495 30.6733 10.2867 30.8847C10.358 30.9943 10.4595 31.1519 10.5564 31.3023C11.2297 32.347 11.549 32.8424 12.0166 32.9481C12.4442 33.0447 13.0269 32.8311 14.1343 32.4248C14.4688 32.3018 14.8512 32.1617 15.2944 32.0062C16.793 31.4805 17.029 31.5704 18.3009 32.0548L18.569 32.1567C18.8904 32.2779 19.1756 32.3894 19.4326 32.4898C20.5019 32.9081 21.0753 33.1323 21.5416 33.0005C22.0811 32.8479 22.5201 32.2071 23.4663 30.8257L23.5082 30.7644C24.8509 28.8046 25.1081 28.7315 26.6636 28.2895C27.1543 28.15 27.7771 27.973 28.6099 27.6848C29.938 27.2254 29.8902 25.9164 29.8376 24.4818C29.7955 23.3364 29.7507 22.1133 30.375 21.1415C30.8553 20.3939 31.4671 19.5828 32.0297 18.8366L32.0937 18.7515C33.1439 17.3588 32.4281 16.4317 31.5406 15.2818C31.1207 14.7379 30.6632 14.1455 30.3272 13.4311C29.9453 12.6193 29.9956 11.2876 30.0379 10.1596C30.047 9.91712 30.0559 9.68416 30.0598 9.47177C30.0991 7.37853 29.3922 7.18551 28.0898 6.8301C27.4167 6.64642 26.5901 6.42064 25.6277 5.88656C24.8013 5.42831 24.2347 4.4465 23.6985 3.51731C23.1126 2.50202 22.5638 1.55107 21.7743 1.46999C21.2794 1.41928 19.7613 2.00143 18.9876 2.29824C18.8672 2.3444 18.7636 2.38411 18.6956 2.4097C17.291 2.93349 16.9598 2.81055 15.8466 2.39678C15.7303 2.35373 15.6044 2.30685 15.4558 2.25328C15.3206 2.20425 15.1499 2.13608 14.9598 2.0605ZM7.91455 31.0443C8.0543 30.819 8.20111 30.5827 8.29625 30.3043C7.89452 29.665 6.8104 29.3103 5.74154 28.9608C4.90257 28.6865 4.0727 28.4153 3.56307 28.0029C2.49307 27.1374 2.57319 25.3785 2.64284 23.849C2.68062 23.0243 2.71499 22.2678 2.56204 21.7749C2.45711 21.4371 1.68209 20.3188 1.30631 19.7766L1.18044 19.5946C-0.679374 16.8869 -0.143804 16.1636 1.41829 14.0541C1.7374 13.6231 2.10044 13.133 2.49444 12.5552C2.93555 11.9075 2.90095 10.9001 2.86476 9.84943C2.82083 8.57368 2.77463 7.23574 3.55875 6.33597C4.26844 5.52158 5.42994 5.21209 6.49016 4.92963C7.2563 4.72562 7.96849 4.53595 8.39754 4.18365C8.77128 3.87655 9.15935 3.26235 9.57361 2.60654C10.1638 1.67209 10.8068 0.654165 11.5679 0.271726C12.7927 -0.343906 14.0635 0.207867 15.2623 0.728548C15.8448 0.981354 16.4099 1.22675 16.938 1.3217C17.6021 1.44105 18.3851 1.1141 19.2086 0.770164C20.2907 0.318126 21.4413 -0.162374 22.5336 0.264551C23.4124 0.608004 23.7517 1.12773 24.186 1.79335C24.2438 1.88184 24.3035 1.97297 24.3677 2.06888C24.5409 2.32766 24.7123 2.60582 24.8841 2.88494C25.1618 3.33554 25.4406 3.78853 25.7395 4.17528C26.2498 4.83564 27.14 5.08533 28.0581 5.34268C29.7072 5.80501 31.4432 6.29172 31.3963 9.15989C31.3863 9.76907 31.3688 10.2575 31.3542 10.6621C31.3226 11.5514 31.3053 12.0338 31.4143 12.46C31.5433 12.9644 31.8556 13.4102 32.5385 14.3844L32.8425 14.8192C34.7121 17.5018 34.0735 18.3583 32.645 20.2733C32.304 20.7306 31.9171 21.2494 31.5083 21.8708C31.0749 22.5297 31.1011 23.5249 31.1284 24.5691C31.1605 25.7958 31.1944 27.0888 30.5013 28.0383C29.9573 28.7836 28.7458 29.1378 27.551 29.4872C26.8687 29.6867 26.1915 29.8848 25.6573 30.1507C25.6967 30.4198 25.8817 30.7341 26.067 31.0488C26.3743 31.5705 26.682 32.0933 26.4 32.5071C26.1328 32.8991 25.8603 32.8912 25.6052 32.6991C25.327 32.4896 25.081 32.0459 24.8918 31.7046C24.829 31.591 24.7726 31.4894 24.7252 31.4145C24.6044 31.5805 24.4676 31.7778 24.3215 31.9883C23.8071 32.7297 23.1784 33.6357 22.7316 33.9323C21.5824 34.6955 20.8731 34.4683 19.9245 34.1645C19.7328 34.1031 19.5309 34.0385 19.3104 33.978L22.4894 39.7827C22.7309 39.4866 23.0275 38.7923 23.3084 38.1343C23.5289 37.618 23.7399 37.1236 23.914 36.8483C24.1997 36.396 25.2647 36.5029 26.3486 36.6113C26.7917 36.6558 27.2385 36.7005 27.6302 36.7077C27.488 36.3537 27.2727 35.9918 27.0605 35.635C26.924 35.4054 26.7885 35.1777 26.6727 34.9524C26.4728 34.5639 26.4815 34.2389 26.5996 34.0198C26.6506 33.9254 26.7221 33.8505 26.8063 33.7988C26.8903 33.7472 26.9868 33.7187 27.0881 33.7161C27.3252 33.7101 27.59 33.8467 27.7814 34.1655C28.0286 34.5771 28.2314 34.9617 28.4442 35.3657C28.5584 35.5821 28.6754 35.8041 28.7983 36.0291C28.8411 36.1073 28.9028 36.2044 28.9711 36.3113C29.2952 36.821 29.757 37.5467 29.2822 37.9844L29.2804 37.986C28.9206 38.296 27.8292 38.1724 26.7833 38.0535C26.0128 37.9662 25.2676 37.8815 24.8914 37.9741C24.5889 38.3855 24.2646 39.1539 23.9448 39.9119C23.6819 40.5349 23.4219 41.151 23.175 41.566C22.9009 42.0269 22.61 42.0769 22.313 41.8817C21.8851 41.6007 21.4624 40.7686 21.0616 39.9795C20.9617 39.7827 20.8631 39.5887 20.7591 39.3941L17.9572 34.2827C17.8862 34.1528 17.8218 34.0296 17.7571 33.9065C17.6659 33.7323 17.5744 33.558 17.492 33.4128C17.3031 33.0804 17.2111 33.077 16.7916 33.0627L16.7388 33.0607C16.3826 33.5035 15.7699 34.6804 15.3028 35.578C15.1514 35.8691 15.0151 36.1313 14.9088 36.3271C14.5239 37.0375 14.1695 37.7012 13.8552 38.2898C12.5626 40.7098 11.9537 41.8494 11.458 41.9848C10.9827 42.1144 10.6721 41.4105 10.0846 40.08C9.8217 39.4842 9.50145 38.759 9.08993 37.9289C8.82454 37.9425 8.46218 37.9738 8.05931 38.0088C6.83225 38.115 5.22714 38.2539 4.61396 38.032L4.57731 38.0188L4.56525 37.9793C4.3736 37.3479 4.70409 36.8103 5.03003 36.2805C5.11242 36.1463 5.19482 36.0126 5.26583 35.8816C5.36302 35.7022 5.47023 35.4903 5.58085 35.2712C5.7964 34.8438 6.02628 34.3889 6.23887 34.0686C6.42392 33.79 6.67315 33.6776 6.89735 33.6948C6.99841 33.7027 7.09424 33.7366 7.17686 33.7938C7.25971 33.8505 7.32936 33.9304 7.37852 34.0299C7.49278 34.2619 7.49324 34.6003 7.27587 34.9988C7.19643 35.1444 7.10357 35.3059 7.00638 35.4745C6.77103 35.8837 6.50973 36.3374 6.35655 36.712C7.30956 36.6823 7.98966 36.6117 8.48904 36.5598C9.18644 36.4874 9.54083 36.4506 9.81009 36.6129C10.088 36.7801 10.2435 37.1401 10.5594 37.8712C10.7606 38.3372 11.0287 38.9578 11.4357 39.7777C11.7673 39.3795 12.3402 38.285 12.774 37.456C12.9379 37.143 13.082 36.8679 13.1901 36.6744L14.8239 33.6642C14.6384 33.7075 14.4131 33.7924 14.1613 33.8873C13.0128 34.3202 11.3344 34.9531 10.0375 32.9899L9.14365 31.6398C9.02734 31.7953 8.94039 31.9663 8.85982 32.1244C8.60034 32.6338 8.40186 33.0237 7.60022 32.5731L7.57131 32.5568L7.56198 32.5245C7.38444 31.8981 7.63663 31.4918 7.91455 31.0443ZM8.72712 25.3582C8.79563 25.3842 8.89464 25.3857 9.08515 25.3866L9.10268 14.1239L6.00216 14.1285C5.69898 14.88 5.59382 15.9491 5.61453 17.0517C5.64071 18.4494 5.869 19.8973 6.15215 20.8225C6.39274 21.6084 6.73074 22.4197 7.14112 23.1788C7.52966 23.898 7.98283 24.5701 8.47902 25.1293L8.49177 25.1439C8.60375 25.2699 8.65884 25.3318 8.72712 25.3582ZM10.396 19.011C10.3561 20.656 10.3095 22.5811 10.4556 23.5691C12.6031 23.9301 13.0128 24.1896 13.2855 24.3627C13.578 24.5481 13.7036 24.6277 16.0073 24.6277L21.0885 24.6349C21.7927 24.6442 22.1717 24.5129 22.3451 24.3302C22.4175 24.2539 22.4519 24.1683 22.4585 24.0812C22.4653 23.991 22.4432 23.8973 22.4025 23.8093C22.3053 23.5988 22.1088 23.4242 21.9443 23.391C21.6732 23.3364 21.5289 23.3498 21.4158 23.3606C21.2089 23.38 21.0923 23.391 20.6414 23.0736L20.6116 23.0528L20.6073 23.0157C20.5142 22.2369 20.8363 22.0049 21.2812 21.9463C21.4729 21.921 21.6878 21.931 21.8997 21.9408C22.1628 21.953 22.4218 21.9652 22.6128 21.9062C22.8852 21.8222 23.0254 21.5701 22.8424 20.8909C22.7129 20.8354 22.4835 20.8005 22.2322 20.7622C21.8243 20.7005 21.3611 20.6302 21.1103 20.4352C20.8793 20.2559 20.8206 19.9906 21.1124 19.5759C21.3197 19.2812 21.7629 19.2934 22.2156 19.3059C22.7858 19.3217 23.373 19.3377 23.3746 18.6795C23.3762 18.0127 22.7621 18.0253 22.1824 18.0373C21.7772 18.0459 21.3871 18.0538 21.1768 17.8486C21.0716 17.7457 21.0097 17.6283 20.9835 17.5075C20.9594 17.3963 20.9658 17.2829 20.9965 17.177C21.027 17.072 21.0814 16.9742 21.1533 16.8926C21.2467 16.7874 21.3698 16.7082 21.51 16.6745C21.7321 16.6211 22.105 16.635 22.4594 16.6479C22.6918 16.6565 22.916 16.6649 23.0796 16.6532C23.424 16.6288 23.6625 16.4607 23.7693 16.2528C23.8125 16.1689 23.8339 16.0787 23.8319 15.99C23.8298 15.9015 23.8046 15.8137 23.7545 15.7333C23.6286 15.5327 23.3477 15.3779 22.8827 15.3715C21.3898 15.3507 20.2515 15.3631 19.3893 15.3724C17.9852 15.3877 17.306 15.3951 17.0044 15.233C16.6817 15.0596 16.7609 14.7542 16.9143 14.1624C17.027 13.7286 17.1829 13.1275 17.2464 12.2959C17.2808 11.8444 17.2678 11.3479 17.2198 10.8571C17.1679 10.329 17.0754 9.80781 16.9578 9.35601C16.945 9.30746 16.9348 9.26632 16.9248 9.22471C16.8328 8.85208 16.737 8.46414 16.3414 8.52441C15.952 8.58396 15.9372 8.92837 15.9142 9.46125C15.8712 10.4545 15.8024 12.0462 13.4755 13.7384C13.1699 13.9606 12.8797 14.1644 12.5938 14.365C12.2731 14.5901 11.9578 14.8111 11.6353 15.0486C11.4459 15.1875 11.3128 15.2923 11.1851 15.4026C11.0592 15.5109 10.9354 15.6279 10.7647 15.7915C10.4028 16.1378 10.4039 16.1696 10.4187 16.6331C10.4219 16.734 10.4258 16.8546 10.4271 17.0038C10.4319 17.5295 10.4149 18.2396 10.396 19.011ZM10.4215 26.1261C10.3834 26.306 10.2942 26.4222 10.0873 26.6901C12.4568 28.5951 15.1271 29.3985 17.7535 29.1723C20.4414 28.9407 23.0842 27.6308 25.312 25.3201C25.6839 24.9343 26.0818 24.3943 26.4467 23.8112C26.8357 23.1896 27.1869 22.5194 27.4293 21.9353C30.3108 14.9933 26.1105 9.96447 25.0696 8.71814C24.9319 8.55335 24.8466 8.45122 24.8306 8.40219C24.8035 8.31896 24.7883 8.23692 24.7844 8.15871C24.7771 8.01282 24.8088 7.87984 24.8743 7.77149C24.9406 7.66195 25.0407 7.578 25.1691 7.53184C25.2278 7.51055 25.2929 7.4974 25.363 7.49357C25.7966 7.46965 26.3809 8.075 26.9529 8.88915C27.7784 10.064 28.5939 11.6829 28.871 12.4296C29.4277 13.93 29.7038 15.5688 29.6988 17.2062C29.694 18.8428 29.4086 20.4783 28.8427 21.9729C28.3338 23.3173 27.6589 24.501 26.88 25.5213C26.0274 26.638 25.0491 27.5593 24.0267 28.2804C22.5267 29.338 20.9291 30.0082 19.317 30.3299C16.8499 30.8221 14.3487 30.498 12.111 29.4978C9.87383 28.4975 7.89998 26.8209 6.48697 24.6086C5.53237 23.1138 4.83383 21.3742 4.48308 19.4336C4.08931 17.2542 4.26366 15.1206 4.87707 13.1656C5.59496 10.8774 6.91442 8.8339 8.62856 7.24794C10.3425 5.66222 12.4515 4.53356 14.7488 4.0753C16.7279 3.68043 18.8465 3.78303 20.9719 4.51945C21.3118 4.63712 22.2686 4.98105 23.0284 5.41754C23.8294 5.87795 24.4105 6.44288 23.8933 6.98246C23.714 7.16997 23.5071 7.19891 23.3029 7.15251C23.1103 7.10898 22.9241 6.998 22.7687 6.89444C21.0921 5.7775 19.1356 5.25084 17.1742 5.24773C15.1232 5.24462 13.0668 5.81338 11.3194 6.87746C10.3136 7.49022 9.16868 8.45624 8.21408 9.61934C7.44271 10.5595 6.79629 11.6282 6.4501 12.7415C6.68385 12.7401 6.96108 12.731 7.25857 12.7212C8.33859 12.6853 9.68309 12.6408 10.2724 12.9321L10.3036 12.9477L10.3138 12.9814C10.4105 13.3021 10.4208 13.7044 10.431 14.1055L10.434 14.2196L13.5054 11.9558C14.4606 11.0891 14.5125 10.2001 14.559 9.40457C14.5922 8.83557 14.6229 8.3125 14.96 7.86285C15.1207 7.64832 15.5179 7.36179 15.9872 7.23263C16.2155 7.16973 16.4616 7.14318 16.7074 7.17882C16.9553 7.21493 17.2022 7.31395 17.4289 7.5017C17.7608 7.77603 18.0487 8.24051 18.2326 8.97669C18.3278 9.35841 18.4177 9.80853 18.4848 10.2646C18.5449 10.6722 18.5866 11.0845 18.5973 11.4572C18.6161 12.1127 18.5417 12.5858 18.4668 13.062C18.4204 13.3571 18.3735 13.654 18.3496 13.9957C18.6353 13.9941 19.0186 13.9855 19.4565 13.9757C20.9259 13.9429 22.9999 13.8965 23.6527 14.0515C24.0242 14.1397 24.3315 14.3284 24.5652 14.5815C24.7858 14.8204 24.9408 15.1165 25.0214 15.4396C25.1019 15.7618 25.109 16.111 25.0346 16.4576C24.9465 16.867 24.7444 17.2724 24.415 17.6238C25.0434 18.8314 24.5056 19.5659 24.1432 20.0609C24.0911 20.132 24.0426 20.198 24.0028 20.2592C24.2102 20.8069 24.2912 21.3467 24.2049 21.8158C24.1262 22.2429 23.9104 22.6103 23.5273 22.8719C23.536 22.9097 23.548 22.9564 23.5617 23.0095C23.7322 23.6689 24.1537 25.3 22.3401 25.9083C22.1047 25.9874 20.61 26.0324 18.9232 26.051C16.724 26.075 14.1912 26.0551 13.7063 26.0061C13.2493 25.9599 12.8879 25.7595 12.5052 25.5471C11.9653 25.2477 11.3813 24.9238 10.4292 25.0063C10.4299 25.2498 10.4347 25.429 10.4383 25.5729C10.4451 25.8413 10.4492 25.9948 10.4215 26.1261ZM7.16093 17.8486C6.93969 17.7907 6.75191 17.6209 6.71299 17.3315C6.66769 16.9943 6.80471 16.7613 7.00433 16.6386C7.08422 16.5896 7.17413 16.559 7.26631 16.5468C7.35781 16.5346 7.45204 16.541 7.54104 16.5661C7.76751 16.6298 7.95984 16.813 7.99353 17.1205C8.02835 17.4377 7.88769 17.6592 7.68762 17.7761C7.60864 17.8225 7.5201 17.8519 7.42996 17.8641C7.33983 17.8761 7.24765 17.8711 7.16093 17.8486Z" fill="#1C212C"/>
</svg>
