<svg width="42" height="38" viewBox="0 0 42 38" fill="none" xmlns="http://www.w3.org/2000/svg">
<path fill-rule="evenodd" clip-rule="evenodd" d="M27.4702 33.9066C27.9674 34.0408 28.4836 34.5234 30.3457 34.9636C32.5044 35.4743 35.6291 35.4692 37.7955 34.9926C39.1314 34.6988 39.7438 34.3777 40.7778 33.8785C40.8691 34.9032 40.7507 35.1195 40.0826 35.5359C38.5308 36.5027 36.0256 36.8022 34.1657 36.8061C32.4539 36.8099 29.6471 36.5041 28.2164 35.5647C27.5375 35.1186 27.422 34.9262 27.4702 33.9066ZM32.234 17.3535C32.6727 16.9888 33.5122 16.9321 34.165 16.9361C34.5375 16.9383 34.9263 16.9735 35.2659 17.044C35.371 17.0657 35.5913 17.1173 35.6871 17.1582C35.9914 17.2884 35.8279 17.1799 36.0211 17.3888C34.9951 17.8363 33.2334 17.8928 32.234 17.3535ZM33.3729 15.7949C29.3486 16.2374 30.4974 19.3081 34.9212 18.8752C38.9515 18.4805 37.7093 15.3182 33.3729 15.7949ZM13.4716 23.5069C15.9645 22.8946 18.0814 24.6463 18.5019 26.5836C19.0457 29.09 17.3691 31.1402 15.4272 31.5685C9.95123 32.7761 8.24993 24.7896 13.4716 23.5069ZM13.3698 22.315C10.7971 22.8379 8.50582 25.455 9.22153 28.6796C9.78107 31.2005 12.3258 33.3745 15.5394 32.7562C18.075 32.2685 20.3163 29.7116 19.6979 26.4826C19.2072 23.9208 16.6009 21.6584 13.3698 22.315ZM32.3242 1.19908L33.1592 1.23275L33.1263 7.88968L32.3275 7.89278L32.3242 1.19908ZM30.2871 2.18301L31.1303 2.16108L31.0861 6.92834L30.2855 6.90287L30.2871 2.18301ZM28.2415 2.98534L29.0871 2.96607L29.0869 6.12136L28.2261 6.05847L28.2415 2.98534ZM26.2161 2.96607H27.0326L27.0355 6.11051H26.1779L26.2161 2.96607ZM24.1569 2.96076L24.989 2.99464L24.9899 6.09124L24.1189 6.11051L24.1569 2.96076ZM34.3956 3.41983L38.2997 3.43246L38.2838 5.65608L34.3469 5.65852L34.3956 3.41983ZM31.0954 0.976744C30.2471 0.976744 29.5105 0.811317 29.2106 1.26065C29.1278 1.38466 29.1722 1.35122 29.1082 1.47945L28.9889 1.7071C28.9792 1.7246 28.9618 1.75981 28.9429 1.7824C27.6008 1.7824 26.2581 1.78705 24.9159 1.78129C23.114 1.77376 22.9265 2.14691 22.9265 3.91833C22.4194 4.00536 22.0276 3.98964 22.0627 4.56542C22.092 5.04243 22.449 5.1649 22.8914 5.1742L21.9523 5.21605C21.9354 5.14032 21.9214 5.0617 21.9167 5.07676C21.8539 5.27784 21.9458 4.12229 21.3887 3.96882C20.6868 3.77549 20.5919 4.46798 20.6379 5.01276C20.7483 6.32178 21.6995 6.41147 22.9856 6.41147C23.429 7.52826 24.1754 7.29441 25.5699 7.29418C26.7394 7.29396 27.9089 7.29418 29.0784 7.29418C29.1777 8.3038 29.4474 8.11357 31.1283 8.11357C31.1456 9.3154 31.7038 9.08332 33.5128 9.08332C34.7097 9.08332 34.3021 8.00173 34.3627 6.84242C35.3852 6.84242 36.4081 6.83954 37.4306 6.84286C38.6663 6.84729 39.0048 6.90952 39.4973 5.88086C41.3858 5.5376 42 6.68053 42 4.1431C42 3.78191 41.9116 3.57884 41.8147 3.36026C41.1859 3.2017 40.2309 3.27677 39.4919 3.26127C39.226 2.49415 38.9433 2.23461 37.9739 2.23461H34.3494C34.3434 -0.264067 34.6273 0.00876519 31.9895 0.00876519C31.1642 0.00876519 31.1896 0.232656 31.0954 0.976744ZM35.9625 23.2947L35.958 34.057L34.7352 34.1345L34.7321 23.3448L35.9625 23.2947ZM32.3316 23.2533L33.5468 23.3335L33.5459 34.1606L32.3171 34.0696L32.3316 23.2533ZM37.1533 33.8382C37.1271 31.7917 37.1498 29.7307 37.1498 27.6826C37.1498 22.6206 36.7084 23.1236 38.3764 22.8651L38.3555 33.5957C37.9255 33.7421 37.6207 33.8783 37.1533 33.8382ZM29.8794 22.8509L31.1196 23.1264L31.1138 33.8964C30.6311 33.8192 30.2469 33.7419 29.8794 33.5403V22.8509ZM39.5657 22.5841C39.7954 22.2807 40.4866 22.0101 40.7696 21.8624C40.8802 23.1608 40.8034 29.8717 40.8034 31.6963C40.8034 32.4875 40.2258 32.9123 39.5741 33.1302L39.5657 22.5841ZM28.6851 33.0954C27.6366 32.9154 27.4491 32.2059 27.4553 31.2651C27.4709 28.9095 27.3145 23.5377 27.4818 21.8827C27.7263 21.9833 28.4474 22.333 28.6877 22.4831L28.6851 33.0954ZM7.19148 21.7164L8.57024 20.2717C9.31393 20.6581 10.0889 21.5461 11.7423 20.8401C12.7399 20.4138 13.2776 19.6432 13.4251 18.2925L15.4714 18.2524C15.7633 20.4258 17.2649 21.3796 18.8984 21.027C19.6641 20.8618 19.8389 20.5053 20.3472 20.3069L21.7366 21.6974C20.1141 23.7706 21.1964 25.9334 22.9539 26.3809C23.0229 26.3984 23.3841 26.4642 23.4032 26.4704C23.7122 26.5725 23.6136 26.4469 23.7691 26.7062V28.3335C23.6431 28.867 22.0536 28.3149 21.1961 30.1581C20.5571 31.5322 21.0387 32.4328 21.7348 33.3094L20.3629 34.7721C19.7403 34.5404 18.8762 33.4555 17.1303 34.2384C15.6207 34.9156 15.6855 36.0616 15.4507 36.7687L13.4134 36.8002C13.3292 35.479 12.7274 34.6695 11.806 34.2461C10.2949 33.5514 9.58916 34.2005 8.59601 34.7674L7.18992 33.4413C7.56554 32.4807 8.50938 31.8509 7.7197 30.1831C7.19126 29.0672 6.53553 28.8588 5.16121 28.5153L5.15721 26.5393C6.55063 26.2248 7.13573 26.037 7.69549 24.9421C8.45474 23.4568 7.74681 22.6197 7.19148 21.7164ZM28.1697 20.8598C27.4316 20.3915 27.4405 20.255 27.4644 19.2459C27.8705 19.336 28.7586 19.9858 30.4479 20.3193C34.0815 21.0368 37.6429 20.7885 40.7881 19.2122C40.8631 20.7024 40.1572 21.1014 38.3066 21.6168C35.4723 22.4063 30.634 22.4231 28.1697 20.8598ZM32.9169 15.2387C38.1709 14.8859 43.5838 17.0045 39.0968 18.7144C33.4044 20.8833 23.5112 18.1021 29.2395 15.9393C30.3619 15.5157 31.591 15.3275 32.9169 15.2387ZM4.92508 10.4659C5.87647 10.2045 6.98157 10.661 7.67462 10.0582C8.43874 9.39358 8.05645 8.49801 9.11268 8.49801H19.0415C20.1195 8.49801 20.6844 10.195 21.8594 10.9889C22.7086 11.5627 25.9375 10.94 26.8756 11.3045C27.3143 12.1084 26.4518 13.7011 28.3239 13.9646C30.0047 14.2014 30.3226 13.452 30.5609 12.1629C31.2698 12.119 31.3253 12.5378 31.7649 12.9355C32.1534 13.2872 32.6032 13.3995 32.4884 14.0698C23.8262 15.0517 26.7938 18.0852 26.2498 23.4471H22.1771C22.2866 22.408 23.7286 21.9704 22.4101 20.6357C21.5436 19.7583 20.8985 18.8138 19.858 19.1631C19.5759 19.2578 18.1783 20.7181 17.0303 19.272C16.313 18.3685 17.1394 17.0654 15.1244 17.0654C11.9595 17.0654 12.6872 17.1084 12.1226 18.8318C11.8784 19.5774 10.9306 20.2429 9.92213 19.7408C9.22619 19.3945 8.57624 18.5005 7.60376 19.5353C6.2552 20.9708 6.24964 21.1942 4.89909 20.9389C4.79025 19.7481 4.77692 11.6205 4.92508 10.4659ZM18.8349 4.12118C18.0992 3.73518 12.8378 3.93759 11.5337 3.93759H11.6425C10.4015 3.93759 10.4313 5.07831 11.5246 5.13323C12.3991 5.1773 13.3492 5.06414 14.2306 5.15648L14.2328 7.27492C13.0248 7.43569 10.8786 7.31611 9.57449 7.31168C6.85095 7.3026 7.92939 8.11578 6.82563 9.19006C5.2696 9.25384 3.80288 8.93096 3.66982 10.645C3.56764 11.9589 3.66449 13.7071 3.66538 15.0774L1.19706 15.1058V11.3025C1.19706 10.0028 0 9.99859 0 11.3025V20.0892C0 21.0598 0.580432 21.3922 1.11021 20.74C1.33234 20.1908 1.1844 17.1651 1.20351 16.2957L3.66005 16.3326C3.7469 21.4981 2.95923 22.0931 6.12481 22.2233C6.32784 22.763 6.78076 22.8423 6.79209 23.6686C6.80075 24.2886 6.46089 24.8059 6.14169 25.0181C4.56567 26.0647 3.96192 24.14 3.96192 28.225C3.96192 30.7172 6.42691 28.9483 6.76765 31.0485C6.96824 32.2869 6.13591 32.3082 6.0033 33.128C5.85892 34.0205 6.62105 34.4999 7.01866 34.8956C7.42516 35.3005 7.90696 36.0778 8.81281 35.9639C9.6027 35.8647 9.73487 35.0194 10.8595 35.1844C12.9942 35.4973 11.3531 38 13.7099 38H15.1244C17.6605 38 15.8461 35.4546 18.0801 35.1802C19.7539 34.9745 19.6517 37.315 21.9412 34.9125C22.3805 34.4514 23.1176 33.9684 22.8981 33.0613C22.7331 32.3797 21.9458 32.1407 22.1366 31.0937C22.5391 28.8854 24.9608 30.7077 24.9608 28.225V26.8148C24.9608 24.685 23.1842 25.8579 22.4894 24.6312H26.2512C26.4044 27.2309 26.27 30.2447 26.27 32.8895C26.27 34.4217 26.1117 35.3944 27.0564 36.1819C29.8079 38.4759 37.3415 38.5184 40.4129 36.7311C41.3178 36.2044 42 35.6663 42 34.2997V17.7028C42 14.3088 36.2151 14.0253 33.7225 14.0063C33.7061 12.7566 32.9515 12.3484 32.3395 11.8209C32.0497 11.5709 31.7009 11.1409 31.2973 11.0126C29.4721 10.4322 29.2919 12.5378 29.2919 12.5378C29.1435 12.8915 28.3243 12.9807 28.1961 12.4875C28.0733 12.0152 28.552 10.4366 27.0195 10.0834C25.2049 9.6653 23.0143 10.5943 22.0791 9.5765C19.3656 6.62428 20.8903 7.43193 15.4201 7.30459L15.4336 5.13345C16.497 5.11485 18.0474 5.32457 18.8798 4.92595L18.8349 4.12118Z" fill="#1C212C"/>
</svg>
