<svg width="42" height="38" viewBox="0 0 42 38" fill="none" xmlns="http://www.w3.org/2000/svg">
<path fill-rule="evenodd" clip-rule="evenodd" d="M23.7435 31.0157C23.8418 31.9532 23.7742 33.2419 23.7742 34.2179C23.7742 35.012 24.0786 36.7703 23.1091 36.6816C22.2703 36.605 22.575 34.8529 22.575 34.1069C22.575 33.1244 22.5239 31.9789 22.5972 31.0137L23.7435 31.0157ZM14.7911 29.0845C13.6031 29.3712 13.6444 28.2018 14.1307 27.9409C14.7853 27.5896 15.3539 28.2689 14.7911 29.0845ZM13.9869 26.6388C11.5474 27.3597 12.5342 31.0493 14.9638 30.3875C17.0883 29.8086 16.4037 25.9246 13.9869 26.6388ZM28.3702 25.7876C29.0593 25.1922 29.7035 26.3278 29.1004 26.7931C28.5296 27.2338 27.6466 26.4131 28.3702 25.7876ZM28.1631 24.4198C25.8042 25.2258 26.984 28.9946 29.3148 28.1209C31.6292 27.2533 30.4468 23.6398 28.1631 24.4198ZM19.4235 31.1727C19.4328 32.298 19.4263 33.4256 19.4265 34.5513C19.4265 34.9264 19.4693 35.8894 19.4024 36.1979C19.3093 36.6287 18.7689 36.8931 18.4122 36.5188C18.091 36.1818 18.2322 33.9708 18.2252 33.3281C18.2163 32.5122 18.1308 32.4447 18.5888 31.9994C18.8341 31.7608 19.0609 31.4281 19.4235 31.1727ZM28.0896 31.0516C28.1412 32.0709 28.1022 33.1879 28.1022 34.2179C28.1022 35.0255 28.3952 36.6636 27.5129 36.6894C26.581 36.7165 26.8933 34.9579 26.8933 34.1069C26.8933 33.1205 26.8461 31.9964 26.9127 31.0123L28.0896 31.0516ZM15.0954 34.0258C15.1358 34.8814 15.4133 36.7149 14.4884 36.6901C13.6151 36.6666 13.8532 34.8752 13.918 34.0591L15.0954 34.0258ZM25.0161 31.0208L25.6694 31.0139L25.6376 35.4306L24.9972 35.4126L25.0161 31.0208ZM20.7004 31.0125H21.3241L21.3002 35.4285H20.6778L20.7004 31.0125ZM17.0091 33.4145L16.9837 35.4195L16.34 35.4264L16.3391 33.6527L17.0091 33.4145ZM20.8664 29.6896C21.0714 29.2905 21.385 29.0551 21.6984 28.736C22.2053 28.2199 23.8948 26.414 24.2365 26.2149C24.3046 28.4815 25.2675 29.0753 25.5585 29.6951L20.8664 29.6896ZM13.4513 24.4145C15.9987 23.7368 17.8822 25.5619 18.3455 27.5864C18.9146 30.0737 17.2177 32.1706 15.404 32.6348C10.2591 33.9518 8.32055 25.7791 13.4513 24.4145ZM27.8854 22.9923C29.8418 22.3458 31.4193 23.8249 31.8362 25.3157C32.4075 27.3588 31.0805 29.1634 29.6252 29.5668C25.5411 30.699 23.6158 24.4026 27.8854 22.9923ZM9.86371 25.6538C8.69177 25.4019 7.78709 24.3796 7.50634 23.1651C7.14578 21.6049 7.97412 20.185 8.7407 19.7229C10.0259 21.1686 9.58752 20.2691 10.2945 22.6606C10.7584 24.229 11.1838 24.4419 9.86371 25.6538ZM31.7124 22.8024C31.7479 22.4606 32.1111 21.2063 32.2442 20.893C32.4092 20.5041 33.0149 20.0052 33.2608 19.7229C33.915 20.1089 34.6354 21.2362 34.5813 22.5585C34.5208 24.0384 33.846 24.5136 33.211 25.2113C32.9351 24.9568 33.0105 24.9455 32.8753 24.5529C32.6345 23.8532 32.2276 23.2435 31.7124 22.8024ZM17.4286 19.5489C17.4619 19.5937 17.4808 19.6098 17.5484 19.7705C17.5613 19.8011 17.5954 19.8992 17.6065 19.9333C17.6361 20.0234 17.6652 20.1687 17.6952 20.2762C18.1267 21.8153 19.545 22.9297 21.2148 22.8323C23.1431 22.7199 24.4618 21.0902 24.4866 18.9901C24.8424 19.1397 27.5829 21.227 27.8924 21.5569C27.6295 21.7339 26.9135 21.9185 26.5095 22.1599C25.9989 22.4654 25.8377 22.6585 25.4539 23.0431C24.6114 23.8872 20.0861 28.7034 19.679 28.9537C19.6383 25.3952 17.5587 22.9382 14.16 22.9757C14.414 22.4543 16.821 20.2116 17.4286 19.5489ZM20.4299 16.8947C23.1559 16.0159 24.5059 20.4988 21.6358 21.4546C18.9555 22.3475 17.349 17.8878 20.4299 16.8947ZM9.12823 28.1367C6.3892 27.6457 4.07054 23.9373 5.32077 20.3103C5.82226 18.8551 6.47597 18.54 6.88373 17.883C7.21276 18.0317 7.60681 18.4547 7.79557 18.7804C7.33084 19.3753 6.82979 19.7567 6.47749 20.7555C5.84487 22.5497 6.26437 24.403 7.51134 25.7094C8.2079 26.4391 8.41689 26.4393 9.39289 26.9207L9.12823 28.1367ZM17.5352 13.5622C18.1328 12.9302 19.2865 11.4703 19.8517 11.4703C22.7962 11.4703 22.2356 11.2025 23.4164 12.4512L31.0385 20.5574L30.7299 21.6231C30.7167 21.6535 30.6636 21.7518 30.6525 21.7732L30.5618 21.9137C29.8611 21.5091 28.8318 20.6208 28.1542 20.1041L23.5236 16.5568C22.7431 15.9518 21.8709 15.3322 20.4734 15.5398C19.1649 15.7338 18.5634 16.5623 17.9316 17.2021C17.2266 17.9156 16.6003 18.5526 15.892 19.2671C14.6243 20.5459 13.1949 22.3617 11.8175 23.4247L10.963 20.5574L17.5352 13.5622ZM31.2938 15.1366C31.0846 14.3157 31.5567 14.0571 31.9264 13.6702C32.3164 13.2619 32.6228 12.8259 33.1112 12.4886L33.8637 13.3385C33.5675 13.8511 33.1284 14.19 32.723 14.6233C32.3085 15.0665 32.0354 15.5472 31.2938 15.1366ZM8.91815 12.519C9.39702 12.8408 9.71953 13.299 10.1286 13.7247C10.4276 14.0359 11.1057 14.524 10.6188 15.1362C10.0166 15.6522 9.55904 14.9201 9.22696 14.5667C8.84008 14.1546 8.4221 13.8274 8.13874 13.3385C8.28684 13.0291 8.60434 12.7277 8.91815 12.519ZM30.161 9.45124C29.7931 9.90893 29.4094 10.2618 29.0052 10.6935C28.7868 10.9266 28.1188 11.8424 27.6379 11.2075C27.1904 10.6167 28.059 10.0052 28.3114 9.73813C28.6822 9.34619 29.0317 8.93953 29.4238 8.58942L30.161 9.45124ZM11.8405 9.45124C11.9775 9.15975 12.337 8.79264 12.5956 8.60758C12.9872 8.9501 13.3574 9.38618 13.7431 9.79284C13.975 10.0372 14.8873 10.7119 14.3099 11.2661C13.784 11.771 13.1832 10.8912 12.9442 10.6379C12.5529 10.2234 12.1978 9.89675 11.8405 9.45124ZM23.7069 10.7841C24.041 10.2947 27.2765 6.88395 27.6527 6.68419C27.8624 6.98464 28.1425 7.32348 28.4876 7.5106C28.0637 8.5885 25.0074 10.105 26.7757 12.1204C27.4379 12.8748 28.5772 12.9477 29.3135 12.2394L31.0872 10.3995C31.4715 10.7073 31.9206 11.1654 32.1674 11.5615C31.5048 12.6204 28.7488 14.1943 30.5081 16.0607C32.2431 17.9016 33.915 14.9481 34.7892 14.2863L35.69 15.2479L31.8225 19.3381C31.632 19.2475 23.9394 11.2264 23.7069 10.7841ZM6.31243 15.2056L7.23711 14.3134C8.09438 14.9451 9.7478 17.9027 11.4932 16.0607C13.2421 14.215 10.5205 12.6392 9.83392 11.5615C10.0775 11.1684 10.5333 10.7048 10.9143 10.3995C11.819 11.1613 13.5683 14.1054 15.2757 12.0615C16.9254 10.0862 13.9365 8.55011 13.5148 7.51244C13.8978 7.30509 14.0985 6.93498 14.3492 6.68281C14.725 6.87889 17.9577 10.2919 18.2948 10.7841C18.0569 11.2374 10.3619 19.2528 10.1777 19.3395L6.31243 15.2056ZM27.1986 4.34241C27.4305 4.03184 27.828 3.69116 28.2569 3.53944L38.6643 14.5601C38.5147 14.8837 38.1663 15.4345 37.8931 15.6766L27.1986 4.34241ZM13.7512 3.54657C14.1744 3.6907 14.5726 4.03138 14.8183 4.35896L4.08511 15.652C3.83284 15.4322 3.48794 14.8863 3.32875 14.5511L13.7512 3.54657ZM29.2457 2.71464C31.1296 0.808249 32.0554 0.963877 33.3748 2.36867L39.7843 9.14297C40.2646 9.64894 40.9534 10.2023 40.7316 11.4197C40.5915 12.1877 39.806 12.8282 39.5392 13.4881C39.0616 13.1914 35.06 8.82988 34.3119 8.04139L29.2457 2.71464ZM29.3425 31.0173C30.1989 30.5951 30.3059 30.9472 31.5935 29.8686C32.0047 29.5243 32.3081 29.6365 32.9355 29.4953C33.5575 29.3551 34.704 28.8776 35.2067 28.4664C35.601 28.1439 35.6763 27.5393 35.2044 27.3053C34.7559 27.0827 34.3873 27.4843 34.0463 27.6823C33.6966 27.8852 33.3274 28.048 32.86 28.1427C32.9029 27.9512 33.1775 26.8329 33.2408 26.7335C33.4642 26.3823 34.9175 25.9899 35.5847 23.8667C36.3737 21.3551 35.1826 20.0397 34.2062 18.7804C34.3965 18.4595 34.7931 18.0322 35.1182 17.8834C35.3568 18.2742 35.5027 18.3276 35.7939 18.6908C36.4733 19.5381 36.9206 20.6847 37.0126 21.8863C37.1472 23.6479 36.7219 24.4019 36.1673 25.6012C35.9331 26.1071 36.0079 26.3336 36.3454 26.5687C37.5221 27.3232 39.7684 21.8806 36.7099 17.8365C36.4474 17.4894 36.1412 17.2274 35.9361 16.8924C36.2093 16.6081 36.3076 16.4051 36.7034 16.1991C36.823 16.4455 37.1396 16.7405 37.3321 16.955C37.6063 17.2612 37.8488 17.4646 38.2637 17.2703C38.5051 17.1572 41.509 12.8422 41.721 12.3622C42.0451 11.6289 42.0875 10.754 41.8448 9.95927C41.5673 9.05148 41.2452 8.89056 40.7383 8.35656C39.8182 7.38716 38.9772 6.49523 38.0599 5.52353C37.1413 4.55045 36.2978 3.66289 35.3798 2.69234C34.4521 1.71167 33.4798 0.421362 32.4499 0.12229C30.6979 -0.386203 29.5828 0.809628 28.6424 1.53467C25.0811 4.27965 25.1048 3.91323 26.4053 5.39962C26.6745 5.70697 26.5349 5.44836 26.6882 5.81892C25.933 6.45155 24.9517 7.6306 24.2143 8.40552C22.219 10.502 23.0069 10.1611 20.8957 10.1629C19.5141 10.1639 19.6361 10.3756 18.8917 9.57032C18.2696 8.897 15.5307 6.2042 15.3141 5.62766C15.7423 5.26491 16.4433 4.78102 16.3645 4.00931C16.1075 3.54128 15.111 2.90429 14.6246 2.52981C13.423 1.60547 11.9271 0.13999 10.6986 0.0227521C9.71496 -0.0708087 8.80224 0.337686 8.33533 0.839052C7.90257 1.30364 6.89743 2.25925 6.9133 2.67119C6.93287 3.1806 7.43262 3.41347 7.87408 3.1429C8.0424 3.03991 8.50605 2.4997 8.68089 2.31488C9.16172 1.80661 9.71344 1.05606 10.8845 1.37214C11.3277 1.49168 12.4703 2.42361 12.7552 2.71579C12.3842 3.00842 11.844 3.65415 11.4739 4.04564L7.63943 8.09932C6.91091 8.86643 2.92861 13.199 2.46257 13.4875C2.087 12.5493 0.39813 11.3381 1.64771 9.76365C2.35275 8.87516 3.41378 7.8814 4.21581 7.03498C5.09939 6.10259 6.75781 4.76769 6.23371 4.07276C5.6274 3.26887 4.507 4.92791 3.47032 6.02489C2.60218 6.94372 1.77602 7.87726 0.882433 8.73126C-0.0998766 9.66986 -0.301034 11.3408 0.476419 12.7095C0.794142 13.2688 1.22886 13.8024 1.5816 14.3189C1.92107 14.8159 3.48837 17.2506 3.89678 17.3225C4.47525 17.4246 5.2103 16.38 5.29815 16.1991C5.68938 16.4037 5.79659 16.6104 6.06473 16.8924C5.57978 17.6738 4.74013 18.0986 4.10794 20.0243C3.40421 22.1679 3.70671 24.5382 4.86039 26.4002C5.26184 27.0485 5.52106 27.2591 5.98449 27.7673C6.80826 28.6707 7.88126 29.0969 9.23326 29.562C9.80804 30.8725 9.65733 31.139 10.5105 32.2017C11.3047 33.1908 12.2146 33.4435 12.6591 33.7872C12.6591 35.474 12.374 36.7671 13.4476 37.6498C13.8876 38.0116 14.6056 38.11 15.2011 37.865C15.9315 37.5645 15.9181 37.0036 16.3778 36.7193L17.1424 36.7291C17.3616 37.4553 17.9203 38.0183 18.8976 37.993C20.1676 37.9602 20.391 36.8195 20.6856 36.7211C21.4833 36.4544 21.6891 37.308 22.0229 37.5806C22.9304 38.3218 24.4385 38.1064 24.8587 36.7259L25.6237 36.7211C26.1898 37.068 26.1415 37.9399 27.4137 37.9921C28.2582 38.0266 28.9073 37.5064 29.1754 36.865C29.4888 36.1149 29.3425 32.1454 29.3425 31.0173Z" fill="#1C212C"/>
</svg>
