<svg width="84" height="150" viewBox="0 0 84 150" fill="none" xmlns="http://www.w3.org/2000/svg">
<path fill-rule="evenodd" clip-rule="evenodd" d="M111.775 88.3252C113.275 89.8044 114.828 91.5245 115.833 92.6767C115.768 92.7864 115.693 92.9243 115.61 93.0792C115.395 93.4793 115.115 93.9998 114.842 94.3323C112.37 97.331 106.73 103.503 101.522 108.561C97.9711 112.009 94.6297 114.933 92.6509 115.962C91.6448 115.253 90.0013 113.793 88.5459 112.305C87.3987 111.133 86.3745 109.95 85.8836 109.118C90.333 107.068 94.454 103.944 98.13 100.287C102.472 95.9679 106.195 90.9028 109.106 85.9873C109.862 86.5174 110.807 87.3704 111.775 88.3252ZM58.8443 55.9255C58.0819 55.7348 57.1224 55.8346 56.1042 56.359L56.002 56.4114L55.9706 56.5226C55.5851 57.8864 55.7262 58.8786 56.1352 59.5395C56.3704 59.92 56.6928 60.1897 57.0555 60.3575C57.4146 60.5238 57.8125 60.5891 58.204 60.563C58.9112 60.5157 59.6031 60.1676 60.0118 59.5708C60.4653 58.9085 60.6182 58.2555 60.5387 57.6847C60.4785 57.2511 60.2847 56.8674 59.9879 56.5625C59.6961 56.2625 59.3049 56.0405 58.8443 55.9255ZM59.5429 48.5595L59.7257 48.5994C64.3854 49.6597 66.8508 52.5982 67.5516 55.8677C67.843 57.2276 67.8309 58.6459 67.5462 60.0105C67.2612 61.3768 66.7029 62.6893 65.9031 63.8358C63.9422 66.6467 60.5198 68.468 56.0892 67.6593L55.894 67.6208C53.6716 67.1608 51.5486 65.7917 50.111 63.8215C48.6742 61.8527 47.9238 59.2819 48.4469 56.4168C48.4607 56.3384 48.4775 56.255 48.4953 56.1681L48.532 55.9996C49.0365 53.7828 50.4217 51.6374 52.3673 50.1881C54.3072 48.7434 56.8057 47.9927 59.5429 48.5595ZM70.3597 50.0908C68.0995 46.7917 64.4819 44.5565 60.6438 43.7716L60.6281 43.7684C56.3447 42.8973 52.4795 44.0235 49.5078 46.232C46.5361 48.4402 44.4584 51.7328 43.7512 55.1919L43.7491 55.2012C42.3489 62.0694 45.1082 67.1541 49.4123 70.0071C51.1014 71.1265 53.0271 71.9003 55.0315 72.3022C57.0344 72.7037 59.119 72.7336 61.1269 72.3649C66.342 71.4072 71.0273 67.7633 72.4132 60.9614C73.2822 56.6957 72.3427 52.9851 70.3597 50.0908ZM77.3074 38.2376C73.1814 35.7095 68.4273 33.951 63.0358 33.1775C56.1801 32.1942 49.9703 33.2505 44.6013 35.4334C38.3074 37.9922 33.1695 42.1003 29.5032 46.2837C25.8261 50.4784 23.6222 54.7622 23.2082 57.648C23.0732 58.5889 23.1263 59.3923 23.3771 60.0094C23.9005 61.2962 24.6355 62.6761 25.431 63.9971C26.4499 65.6891 27.575 67.2941 28.4785 68.4819C29.0806 69.2735 30.8866 71.3659 32.5076 73.0511C33.6252 74.2129 34.6673 75.1912 35.1996 75.4477C35.9695 75.8189 36.6953 75.8717 37.297 75.6964C37.6059 75.6066 37.8809 75.457 38.1125 75.2603C38.3451 75.0629 38.5343 74.8178 38.6693 74.5371C38.9287 73.9995 38.9907 73.3318 38.7833 72.6196C38.5343 71.7656 37.5061 70.9195 36.5577 70.1386C36.1178 69.7766 35.6952 69.4289 35.391 69.1121C34.3995 68.0807 33.3748 66.8523 32.3797 65.5131C31.3789 64.1664 30.4067 62.7053 29.526 61.2179L29.4597 61.1064C27.6171 57.9947 27.5302 57.8479 31.1752 52.4525C32.8953 49.9062 35.1141 47.3147 37.7719 45.0499C40.0695 43.0915 42.6948 41.3764 45.6084 40.1462C52.9811 37.032 59.9936 36.9857 66.1129 38.7076C73.7592 40.8591 80.0133 45.7685 83.836 50.9042C83.9875 51.1079 84.1385 51.3064 84.3009 51.5198C85.902 53.6239 88.6275 57.2077 87.62 59.3001C84.437 65.9125 79.5733 71.134 73.6428 74.4541C67.8437 77.7001 61.0219 79.1287 53.7511 78.2626C52.7681 78.1454 51.8439 77.9951 50.9397 77.798C50.0337 77.6007 49.1502 77.3573 48.2502 77.0549C48.1373 77.0171 47.9548 76.9519 47.7621 76.8831C47.4796 76.7827 47.1771 76.6747 46.8636 76.5767C45.3551 76.1043 43.676 75.8809 43.0896 77.7539C42.9981 78.0464 42.9571 78.3275 42.9621 78.5975C42.9859 79.9072 44.0861 80.8698 45.7908 81.566C47.4211 82.2315 49.6226 82.6615 51.949 82.9223C56.733 83.4595 62.07 83.2832 64.0131 82.9761C69.1281 82.1684 73.7393 80.2741 77.7719 77.6545C82.226 74.7612 85.9744 70.9826 88.9151 66.8046C91.8711 62.6052 93.1828 60.1252 93.0304 57.6445C92.8782 55.167 91.2703 52.7671 88.386 48.711C85.4036 44.5166 81.7148 40.9382 77.3074 38.2376ZM74.4436 2.37319C70.3073 1.17505 65.8629 0.403361 61.061 0.104092C50.2382 -0.569974 39.9722 2.07641 31.183 6.68764C21.3353 11.8543 13.3402 19.4899 8.49315 27.6866C4.92828 33.7155 2.45683 39.7525 1.13364 46.1294C-0.189911 52.5067 -0.364883 59.2203 0.662964 66.6015C2.10658 76.9676 6.37042 86.3129 12.3013 93.956C18.6807 102.177 26.9897 108.43 35.7939 111.87C36.7597 112.247 37.7113 112.611 38.6872 112.952C39.6623 113.293 40.6516 113.609 41.6859 113.888C42.6571 114.15 43.5089 114.107 44.1687 113.859C44.6397 113.682 45.0149 113.399 45.27 113.044C45.5286 112.684 45.6619 112.253 45.6448 111.787C45.6248 111.254 45.4075 110.676 44.9543 110.11C44.5389 109.591 42.0707 108.799 40.3143 108.235C39.684 108.032 39.1468 107.86 38.8468 107.748C28.4964 103.868 19.4474 96.5247 13.3042 86.8602C7.54684 77.8027 4.34256 66.7055 5.01128 54.5082C5.36008 48.1452 6.80476 42.2268 9.12016 36.856C13.5408 26.6018 21.1383 18.3441 30.3489 12.7991C39.5614 7.2534 50.3867 4.42068 61.2619 5.01708C67.1429 5.3395 73.0403 6.66519 78.7054 9.10779L89.2585 14.6108L89.3109 14.6157C90.0127 14.6817 90.5671 14.558 90.9832 14.3111C91.3879 14.0707 91.6591 13.7169 91.8069 13.3054C91.9509 12.9056 91.9754 12.4532 91.8917 12.0032C91.772 11.3616 91.4307 10.7174 90.8977 10.2318C90.0131 9.4263 88.1736 8.41377 86.7703 7.64138C86.4874 7.48568 86.2223 7.33961 85.9744 7.20031C82.4092 5.19664 78.5821 3.57204 74.4436 2.37319ZM63.645 14.2096L64.0591 14.2616C75.9062 15.8207 86.4938 21.9361 93.5213 31.166C100.101 39.8081 103.56 51.1842 102.008 64.1112C101.272 70.2365 99.3484 75.7826 96.5296 80.6336C92.0951 88.266 85.4442 94.1801 77.7217 97.9245C69.9973 101.67 61.2007 103.244 52.4756 102.197C46.6933 101.503 40.9416 99.656 35.5555 96.5265C28.015 92.1451 22.0097 85.6389 18.2283 77.8522C14.5651 70.3099 12.9875 61.5642 14.1197 52.3813L14.165 52.0221C15.6499 40.7383 21.4222 30.4713 30.122 23.4317C38.8208 16.3932 50.448 12.5825 63.645 14.2096ZM105.54 71.839C106.421 68.7459 106.986 65.4571 107.277 61.6304C107.758 55.2831 106.66 48.2353 104.423 41.743C102.18 35.2357 98.7902 29.2799 94.6959 25.1389C90.1873 20.5787 85.5775 16.7512 80.2651 13.9499C74.9478 11.1457 68.9314 9.37107 61.6161 8.92182C53.9734 8.45225 46.802 9.63436 40.3552 12.1055C31.3316 15.5641 23.7259 21.5477 18.2293 29.0611C12.7331 36.5746 9.34529 45.6189 8.75638 55.1987C8.33562 62.053 9.34711 69.1809 12.0444 76.2173C14.1514 81.7152 17.3394 86.7465 21.3072 91.0816C25.3601 95.509 30.2257 99.2089 35.5844 101.937C38.4531 103.397 41.4586 104.582 44.6882 105.482C47.916 106.382 51.3633 106.998 55.1191 107.318C64.6494 108.132 74.0838 105.783 82.2239 101.182C90.5813 96.4574 97.5753 89.358 101.909 80.8702C103.462 77.829 104.658 74.9333 105.54 71.839ZM57.0416 116.228C57.3116 116.222 57.56 116.217 57.8453 116.217C67.3663 116.217 72.0285 114.565 75.9991 113.158C77.8282 112.51 79.5098 111.914 81.4494 111.562C82.2442 112.533 85.3652 115.907 88.0183 118.469C89.7619 120.153 91.3248 121.498 91.9519 121.621C93.4386 121.913 94.2937 121.213 95.21 120.462C95.6504 120.1 96.1067 119.726 96.6543 119.467C98.2273 121.65 99.4019 123.609 100.575 125.566C102.482 128.744 104.385 131.918 107.957 136.02C108.085 136.167 108.24 136.366 108.416 136.592C108.966 137.296 109.712 138.254 110.553 138.83C111.614 139.557 112.791 139.695 113.871 138.117L113.883 138.098C114.972 136.176 113.344 134.499 112.011 133.126C111.679 132.784 111.366 132.461 111.129 132.166C110.396 131.257 109.783 130.467 109.175 129.662C108.564 128.852 107.967 128.04 107.261 127.079C105.648 124.882 104.282 122.534 102.87 120.107C102.126 118.828 101.369 117.527 100.56 116.219C101.7 114.76 103.636 113.063 105.478 111.449C106.619 110.449 107.724 109.481 108.589 108.613C109.723 107.477 110.769 106.307 111.812 105.14C113.176 103.613 114.538 102.09 116.102 100.641C121.284 103.617 127.066 107.145 132.12 111.205C137.215 115.298 141.574 119.933 143.836 125.087C144.591 126.806 145.069 128.557 145.153 130.325C145.236 132.088 144.927 133.871 144.109 135.662C143.506 136.98 142.656 138.225 141.701 139.336C140.584 140.636 139.323 141.753 138.145 142.597C131.222 147.551 125.693 144.418 122.124 142.394C120.462 141.452 119.201 140.738 118.303 141.121L118.258 141.14L118.223 141.174C117.131 142.224 116.679 143.068 116.779 143.852C116.881 144.636 117.528 145.305 118.638 146.016C123.555 149.163 128.133 150.245 132.191 149.936C135.425 149.69 138.326 148.562 140.804 146.893C143.276 145.228 145.327 143.022 146.867 140.617C149.151 137.049 150.312 133.034 150.058 129.682C149.665 124.521 146.782 119.448 142.856 114.862C137.425 108.518 129.992 103.097 124.42 99.6763C123.783 99.2844 123.124 98.9282 122.47 98.5747C121.384 97.9872 120.309 97.4062 119.392 96.694C119.755 95.9832 120.199 95.4403 120.59 94.9611C121.971 93.2713 122.762 92.3029 118.453 88.1395C117.936 87.64 117.321 87.0718 116.685 86.4836C114.723 84.6694 112.547 82.6579 111.544 81.0316C113.8 74.909 115.428 68.8859 116.005 62.659C116.585 56.3868 116.096 49.9151 114.102 42.9361C112.916 38.7831 111.292 34.547 109.256 30.6077C107.406 27.0293 105.215 23.6939 102.701 20.8858C102.356 20.5006 102.027 20.0856 101.701 19.673C100.21 17.788 98.7542 15.9486 95.7725 16.7259L95.6478 16.7584L95.5966 16.8774C95.2114 17.7659 94.9524 18.3783 94.9912 18.9997C95.0308 19.6328 95.3722 20.2192 96.1887 21.0204C99.4194 24.1902 102.444 28.3283 104.893 32.8266C107.3 37.2504 109.15 42.0198 110.088 46.5566C110.484 48.4698 110.774 50.3819 110.963 52.2854C112.301 65.8138 108.499 78.9217 101.015 89.3398C93.5327 99.7565 82.3682 107.484 68.9809 110.254C67.1639 110.629 65.3053 110.914 63.4096 111.102C62.5844 111.183 60.5943 111.201 58.5475 111.219C55.8434 111.243 53.041 111.268 52.5771 111.458C52.1816 111.62 51.8696 111.878 51.643 112.193C51.3979 112.532 51.2529 112.936 51.2098 113.352C51.167 113.765 51.2243 114.192 51.3836 114.581C51.5425 114.97 51.803 115.321 52.1656 115.582C53.1668 116.305 55.439 116.259 57.0416 116.228Z" fill="#F5F5F5"/>
</svg>
