<svg width="90" height="150" viewBox="0 0 90 150" fill="none" xmlns="http://www.w3.org/2000/svg">
<path fill-rule="evenodd" clip-rule="evenodd" d="M74.1828 141.112C75.7058 138.845 77.3721 136.094 77.9037 135.064C78.629 133.657 78.6874 132.3 78.3109 131.16C78.0476 130.364 77.572 129.672 76.9642 129.142C76.3564 128.612 75.6157 128.244 74.8216 128.095C73.7267 127.89 72.5275 128.103 71.4331 128.887C71.0259 129.177 70.0308 130.559 68.9491 132.185C67.3783 134.546 65.6476 137.398 65.2372 138.226C64.551 139.611 64.5004 140.921 64.8627 142.021C65.1281 142.825 65.6145 143.519 66.234 144.048C66.855 144.578 67.6092 144.943 68.4083 145.088C69.485 145.284 70.6471 145.082 71.6814 144.351C72.1363 144.029 73.1204 142.693 74.1828 141.112ZM68.7532 71.8992C68.9071 71.502 69.1857 71.1329 69.6068 70.8343C70.2588 70.3719 71.8453 70.4043 73.566 70.6594C75.9 71.0057 78.5297 71.7574 79.3238 72.2195C85.4663 75.8549 92.1848 80.6279 98.3523 83.8739C99.2964 84.4646 99.8511 84.9815 100.039 85.6624C100.225 86.3364 100.033 87.1241 99.4845 88.2567L99.4339 88.3604L99.3228 88.3943C96.8549 89.1474 94.5576 87.5574 92.4542 86.1017C91.9418 85.7468 91.4416 85.4005 90.941 85.0927C90.3094 84.704 89.3354 84.1001 88.3542 83.4916C86.6697 82.4474 84.9621 81.3885 83.3062 80.3928C75.268 75.5581 74.5326 75.6372 73.5882 75.7388C73.0107 75.8008 72.3618 75.8706 70.3514 75.0929C69.8148 74.8852 69.3792 74.5321 69.0781 74.1078C68.8487 73.7839 68.6965 73.4177 68.637 73.0411C68.5765 72.6602 68.6103 72.2683 68.7532 71.8992ZM63.6842 116.934C63.5698 116.96 63.4576 116.989 63.3489 117.021C61.2833 117.624 60.4984 119.008 59.555 120.673C59.3466 121.041 59.1303 121.422 58.8952 121.807C58.3846 122.641 57.7967 123.531 57.19 124.45C54.8561 127.985 52.2347 131.954 52.8724 134.473L52.8774 134.492C53.1542 135.571 53.8072 136.531 54.7435 137.132C55.678 137.732 56.9 137.973 58.3198 137.614L58.3437 137.607C60.5497 137.04 62.6973 133.318 64.7041 129.839C65.2977 128.81 65.8792 127.802 66.4424 126.908C66.6512 126.577 66.8685 126.258 67.0887 125.935C68.2191 124.275 69.4286 122.501 68.855 120.008C68.8347 119.92 68.8131 119.836 68.7903 119.758C68.4971 118.753 67.8632 117.899 66.9843 117.371C66.1036 116.841 64.9717 116.638 63.6842 116.934ZM55.0984 105.385C54.585 105.4 54.0445 105.506 53.4891 105.718C51.6842 106.408 50.4408 108.588 49.3239 110.547C49.0649 111.001 48.8123 111.444 48.564 111.85C48.2455 112.37 47.7553 113.124 47.1738 114.018C44.7337 117.77 40.6672 124.022 40.7912 126.132C40.8147 126.535 40.891 126.927 41.0135 127.301C41.316 128.221 41.9014 129.023 42.6763 129.579C43.4494 130.134 44.4127 130.444 45.4719 130.381C45.8823 130.357 46.3088 130.277 46.7452 130.134C48.8636 129.438 52.6533 122.901 54.85 119.111C55.3007 118.334 55.6855 117.671 55.977 117.193C56.2096 116.813 56.4871 116.393 56.785 115.943C58.0116 114.088 59.5892 111.702 59.5333 109.779C59.5172 109.227 59.4078 108.695 59.2208 108.205C58.898 107.361 58.3422 106.641 57.6293 106.14C56.9182 105.64 56.0493 105.357 55.0984 105.385ZM47.4147 94.4039C46.6177 94.0921 45.6974 94.0148 44.7337 94.245C42.356 94.8132 41.255 96.7371 39.8695 99.1587C39.5432 99.7294 39.2008 100.328 38.8032 100.973L29.1721 116.751C28.8222 117.64 28.7553 118.53 28.9109 119.348C29.0549 120.104 29.3894 120.8 29.8661 121.378C30.3432 121.956 30.9624 122.416 31.676 122.701C32.4541 123.011 33.3462 123.114 34.2903 122.934C36.5206 122.51 37.9948 119.883 39.2746 117.602C39.5421 117.126 39.8015 116.664 40.0577 116.239L49.7055 100.46C50.1337 99.3542 50.1911 98.2965 49.9702 97.3734C49.8046 96.6801 49.4818 96.0609 49.0421 95.5532C48.6035 95.0469 48.0474 94.6515 47.4147 94.4039ZM39.6088 70.8518C39.7402 70.5394 39.8696 70.2326 39.9886 69.9319L33.2312 68.6429C32.7737 70.4132 31.8107 72.7379 30.9396 74.8406C30.6044 75.6504 30.2823 76.4271 30.0019 77.1446C29.7511 77.7866 29.2088 79.1494 28.5234 80.8716C25.7566 87.8249 20.5625 100.878 19.9486 103.338C21.4282 103.834 22.8786 104.722 24.3422 105.618C25.805 106.513 27.2817 107.417 28.7834 107.923C29.5448 106.294 30.9385 104.146 32.2172 102.177C32.82 101.248 33.3975 100.359 33.8728 99.5773C34.15 99.1216 34.4528 98.6107 34.7663 98.0806C36.2523 95.571 37.9952 92.6271 39.6006 91.3367C41.0827 90.1457 43.0251 89.364 45.0569 89.2158C46.9013 89.0819 48.8216 89.4688 50.5403 90.5436C52.2286 91.5996 53.3669 92.8698 54.0538 94.5314C54.7107 96.12 54.9488 98.0588 54.8572 100.507C55.077 100.52 55.2932 100.537 55.5063 100.559C58.4534 100.857 60.7293 101.94 62.2377 103.722C63.7448 105.501 64.4772 107.968 64.3397 111.035C64.329 111.275 64.3126 111.518 64.2912 111.766C73.1022 112.681 73.467 117.621 73.7976 122.116C73.8254 122.496 73.8532 122.873 73.8838 123.223C76.0835 123.3 77.8356 123.841 79.2222 124.719C80.6644 125.632 81.7076 126.907 82.4458 128.404C84.4776 132.523 83.2214 135.082 81.869 137.837C81.6524 138.279 81.4326 138.726 81.2181 139.202C82.0365 139.754 83.0012 140.098 83.9703 140.209C84.8033 140.304 85.638 140.227 86.3822 139.962C87.1165 139.702 87.7635 139.256 88.2334 138.613C88.6295 138.071 88.9021 137.385 88.9983 136.545C89.346 133.506 87.1745 132.106 85.1217 130.783C84.3098 130.259 83.515 129.747 82.878 129.145L82.797 129.068L82.7949 128.956C82.7515 126.682 83.6147 125.872 84.8674 125.848C86.6601 125.814 89.2392 127.554 90.9151 128.685C91.2742 128.927 91.592 129.142 91.8314 129.292C93.6566 130.439 95.1864 130.863 96.4244 130.812C97.1815 130.78 97.8299 130.57 98.3686 130.239C98.9073 129.908 99.3384 129.456 99.6619 128.942C100.18 128.117 100.421 127.133 100.384 126.233C100.259 123.225 96.9471 121.479 93.9701 119.91C91.043 118.368 88.4212 116.986 89.1312 114.64C89.5498 113.255 90.5061 112.945 91.5738 113.118C92.5572 113.278 93.6267 113.872 94.4101 114.368C96.3165 115.573 98.2404 116.76 100.156 117.94C101.448 118.737 102.734 119.53 103.877 120.242C105.421 121.205 107.046 121.485 108.414 121.201C108.979 121.084 109.501 120.87 109.955 120.568C110.405 120.268 110.787 119.88 111.077 119.414C111.642 118.508 111.862 117.298 111.562 115.845C111.08 113.522 105.548 110.327 101.391 107.927C100.319 107.308 99.337 106.74 98.5724 106.265C98.2977 106.094 98.007 105.934 97.7191 105.775C96.1643 104.916 94.6883 104.099 95.3189 101.739L95.3297 101.699L95.3549 101.661C96.8523 99.4291 99.2444 100.646 101.342 102.053C101.662 102.267 101.986 102.494 102.297 102.712C102.789 103.057 103.248 103.379 103.652 103.621C105.26 104.584 106.821 105.55 108.362 106.503C109.515 107.216 110.656 107.922 111.772 108.6C112.157 108.834 112.563 109.108 112.996 109.399C115.226 110.9 118.182 112.89 120.912 111.276C121.468 110.947 121.913 110.536 122.248 110.073C122.761 109.367 123.019 108.536 123.033 107.684C123.045 106.826 122.811 105.945 122.338 105.145C121.968 104.519 121.451 103.943 120.793 103.466C119.207 102.316 117.231 101.15 115.305 100.014C114.411 99.4864 113.527 98.9645 112.723 98.47L104.588 93.4897L104.57 93.4747C104.018 93.0094 103.71 92.4479 103.607 91.8839C103.543 91.5312 103.559 91.1785 103.647 90.849C103.735 90.5194 103.895 90.2105 104.118 89.9455C104.463 89.5365 104.957 89.2347 105.566 89.1239C106.857 88.8888 109.554 90.6687 112.345 92.511C114.4 93.8677 116.507 95.2585 118.066 95.8685C118.628 95.1634 119.209 94.5481 119.823 93.8979C120.068 93.6379 120.32 93.3717 120.584 93.0835C120.965 92.6699 121.348 92.3318 121.713 92.0094C122.3 91.4906 122.841 91.0129 123.244 90.3082C122.181 88.6529 115.727 82.5468 111.684 78.7226C110.441 77.5465 109.422 76.5835 108.878 76.0505C108.377 75.5603 107.428 74.5991 106.24 73.3959C102.292 69.3964 95.6902 62.7106 94.2423 61.8502C91.9935 64.1899 91.8678 64.1781 88.6887 63.8821C88.2662 63.8429 87.7824 63.7976 87.1311 63.7456C85.1239 63.5853 83.0931 63.3954 81.0524 63.2044C80.088 63.1143 79.121 63.0238 78.1438 62.9354C76.7518 62.81 75.2594 62.696 73.7681 62.5824C72.2339 62.4652 70.7002 62.3483 69.1276 62.2033C65.9728 61.9126 64.9339 62.4392 63.0806 63.3783C62.5722 63.6359 62.004 63.9237 61.3207 64.2333C59.3216 65.139 57.4829 65.9848 55.6567 66.8249C53.109 67.9966 50.584 69.1584 47.9626 70.3295C45.3326 71.5041 43.951 72.8704 43.412 74.1979C43.096 74.9753 43.0703 75.7406 43.2509 76.4438C43.4333 77.1535 43.8259 77.8055 44.3432 78.3485C45.2795 79.3307 46.6159 79.9488 47.8515 79.9075C49.5334 79.8509 55.2445 77.119 58.8863 75.3768C59.9822 74.8524 60.8946 74.4159 61.4368 74.1758C62.9478 73.5067 64.1327 73.5926 64.9065 74.0572C65.2531 74.2652 65.5175 74.5485 65.6931 74.8745C65.8681 75.2001 65.9543 75.5685 65.9454 75.9483C65.9265 76.7652 65.4637 77.632 64.4947 78.2195C63.4544 78.8494 61.5825 79.6464 59.8756 80.3728C59.0088 80.7419 58.1841 81.0928 57.5349 81.3939C57.0647 81.6119 56.6375 81.8175 56.2025 82.0266C52.2133 83.9455 47.4817 86.2214 42.8209 83.4781C41.8654 82.9159 40.9462 82.074 40.1895 81.0397C39.4815 80.0725 38.9126 78.9342 38.5841 77.6958C37.8659 74.9867 38.7847 72.8067 39.6088 70.8518ZM95.4244 50.7659C94.4739 51.5294 93.5479 52.2733 92.9739 53.2666C93.9291 54.7095 98.1431 58.6702 100.885 61.2471C101.681 61.9952 102.353 62.6273 102.793 63.0544C103.638 63.8753 104.487 64.6926 105.326 65.4992C107.886 67.9632 110.346 70.3306 112.974 73.0849C114.065 74.2282 121.102 81.2959 126.627 86.7045C129.695 89.7078 132.293 92.196 133.133 92.8626L141.175 85.5997C141.883 84.9331 142.373 84.5437 142.966 84.4143C143.558 84.2854 144.205 84.4279 145.218 84.8273L145.322 84.8682L145.366 84.9712C146.5 87.6621 144.948 88.9094 143.49 90.0819C143.114 90.3837 142.746 90.6805 142.444 90.9904C141.275 92.1925 140.377 92.9966 139.449 93.8278C138.876 94.3404 138.291 94.8645 137.602 95.5211C137.345 95.7659 137.076 96.0691 136.792 96.3897C135.493 97.8568 133.891 99.6667 131.569 98.3674C130.812 97.9434 129.965 97.042 129.079 96.0986C128.337 95.3088 127.567 94.4879 126.821 93.9222L122.423 98.5156C122.581 98.6617 122.823 98.8519 123.115 99.081C125.121 100.655 129.348 103.972 127.603 110.006C126.905 112.418 125.553 114.218 123.627 115.346C121.779 116.429 119.409 116.887 116.59 116.671L116.584 116.822C116.429 120.095 115.33 122.482 113.447 124.037C111.571 125.587 108.926 126.298 105.669 126.227L105.365 126.219C104.97 129.494 103.899 131.981 102.03 133.596C100.16 135.211 97.5079 135.942 93.9508 135.706C93.8689 137.685 93.4296 139.325 92.7 140.664C91.8763 142.177 90.6852 143.303 89.222 144.1C85.1338 146.326 82.8672 145.337 80.0883 144.126C79.6138 143.919 79.1235 143.705 78.6105 143.502C78.2988 143.844 77.9749 144.316 77.6122 144.847C76.113 147.037 73.9683 150.171 68.8127 149.993C63.1875 149.799 61.4486 146.08 60.2917 143.606C60.0805 143.154 59.8892 142.744 59.6993 142.415C57.6571 142.596 55.6787 142.569 53.902 142.015C52.0569 141.441 50.4376 140.304 49.2028 138.257C48.8497 137.672 48.6356 137.09 48.4272 136.523C48.2305 135.989 48.0388 135.468 47.7396 134.987C44.3764 135.365 41.8062 134.886 39.8913 133.622C37.9902 132.367 36.7486 130.35 36.0293 127.638C33.4406 127.854 31.4017 127.765 29.73 127.207C27.9886 126.625 26.6558 125.543 25.5332 123.78C22.5419 119.082 24.2235 115.705 25.3786 113.385C25.629 112.882 25.8541 112.43 25.992 112.04C24.6051 111.538 23.2673 110.723 21.9277 109.907C20.6251 109.114 19.3198 108.319 17.9902 107.828C17.1333 109.861 16.5473 111.515 16.082 112.829C15.2273 115.243 14.7674 116.541 13.7349 117.012C12.5528 117.552 12.6407 117.609 8.81323 116.199C7.81567 115.832 8.45174 116.049 7.15171 115.586C6.51434 115.36 5.8249 115.165 5.13801 114.972C4.30184 114.736 3.46853 114.501 2.72392 114.209C0.674289 113.404 -0.690593 112.192 0.366821 109.5L0.407459 109.397L0.510791 109.353C2.70614 108.423 4.71818 109.302 8.15976 110.679C9.93827 111.39 9.76526 111.355 11.0528 111.62L30.4817 62.4388C28.4061 61.8171 25.8895 60.7333 23.6271 59.7593C22.8683 59.4322 22.1375 59.1176 21.4855 58.8469L21.0868 58.5854C20.5367 58.3784 19.9528 58.1895 19.3668 58C18.723 57.7919 18.0767 57.5832 17.4664 57.347C15.1311 56.4449 13.3825 55.1837 14.4983 52.2964L14.5396 52.1892L14.6472 52.1465C16.9363 51.2344 20.965 53.0507 23.8807 54.3646C24.5697 54.6753 25.1957 54.9574 25.7084 55.1637L29.3164 56.7278C30.1266 57.0324 30.864 57.2793 31.5288 57.5016C35.2351 58.7414 36.812 59.2698 35.2198 63.8995C36.6153 64.3224 38.0839 64.5415 39.5745 64.7635C40.4278 64.8907 41.2886 65.0193 42.1515 65.1878C42.523 65.2605 42.947 65.347 43.3204 65.4236C44.5093 65.667 45.1467 65.7977 45.7363 65.7404C46.415 65.6741 47.0987 65.3495 48.5729 64.6495L48.792 64.5454C49.1814 64.3609 49.7856 64.0655 50.5128 63.7107C55.0417 61.499 64.4505 56.9041 67.3316 57.0534C72.8464 57.6801 82.004 58.8476 87.2932 58.8476C87.6652 58.8893 87.9851 58.9356 88.2705 58.9769C89.4626 59.149 89.9955 59.2256 90.6674 58.3591C90.8559 57.9548 89.6111 56.8517 88.7258 56.0676C88.4258 55.8018 88.1632 55.5692 87.9986 55.3982C87.0171 54.3764 86.7695 53.4875 86.963 52.6709C87.1514 51.8764 87.7617 51.1828 88.5135 50.5108C89.6802 49.4687 90.8185 48.3946 91.9504 47.3268C93.2504 46.0998 94.543 44.8807 95.9014 43.69L139.875 2.40275C141.658 0.533748 143.171 -0.0954274 144.224 0.0114541C144.702 0.059907 145.091 0.255857 145.375 0.55655C145.655 0.853324 145.829 1.2495 145.883 1.70374C146.005 2.73586 145.494 4.09005 144.172 5.22692C138.139 10.4189 128.654 19.4974 120.887 26.9317C118.689 29.0362 116.628 31.0092 114.829 32.7172C110.195 37.1196 104.892 42.3262 100.066 46.4027C99.4186 46.9688 98.8439 47.5588 98.2692 48.1491C97.6967 48.7369 97.1235 49.3259 96.4676 49.902C96.1216 50.2059 95.7711 50.4873 95.4244 50.7659Z" fill="#F5F5F5"/>
</svg>
