<svg width="84" height="131" viewBox="0 0 84 131" fill="none" xmlns="http://www.w3.org/2000/svg">
<path fill-rule="evenodd" clip-rule="evenodd" d="M42.505 119.721L53.2722 119.72L53.2085 125.608H42.324L42.505 119.721ZM65.486 24.5976C66.0275 23.9976 66.0717 23.072 65.684 21.6719L65.6534 21.5614L65.5515 21.5084C63.8966 20.6437 61.8434 20.6936 59.646 20.747C59.02 20.762 58.3823 20.7776 57.7424 20.7719C57.3626 19.7726 55.6992 16.0439 54.2342 13.0081C53.1903 10.8448 52.2351 9.01747 51.8846 8.72711C51.6957 8.57106 51.5073 8.44779 51.3213 8.35444C50.7783 8.08225 50.2725 8.07726 49.8111 8.24934C49.3679 8.41465 48.9767 8.74242 48.6407 9.14893C48.3479 9.50306 48.0938 9.92168 47.8822 10.3435C47.4846 11.1362 46.7539 12.7405 45.8814 14.6569C43.8813 19.0501 41.1312 25.0903 40.0314 26.5795L34.0097 13.6985C33.5918 12.8549 33.1589 12.2702 32.7225 11.9061C32.2686 11.5278 31.8083 11.382 31.3537 11.4301C30.9073 11.4768 30.4808 11.7109 30.0829 12.0935C29.5556 12.6005 29.0703 13.3793 28.6524 14.3309C28.3136 15.1033 27.9214 15.9013 27.5227 16.7126C26.8604 18.0604 26.1799 19.4448 25.7 20.7876L18.8703 20.8396L18.8019 20.8899C18.2426 21.2996 17.8403 21.7973 17.6183 22.3107C17.4648 22.6652 17.3968 23.0271 17.4203 23.3749C17.4442 23.7308 17.5635 24.071 17.784 24.3717C18.0131 24.6842 18.3519 24.9531 18.8076 25.1498C19.8012 25.5798 21.9481 25.5064 23.629 25.4491C24.1777 25.4305 24.6765 25.4134 25.0577 25.4159C28.7237 25.4416 28.9157 24.9542 29.7484 22.8387C30.0868 21.9783 30.54 20.8268 31.4353 19.297C32.5333 20.6544 33.5947 23.2484 34.6724 25.8827C35.8463 28.7524 37.0402 31.6706 38.3619 33.1834C39.3969 34.368 40.5031 34.7321 41.723 33.6665C42.2567 33.2001 44.8482 27.6362 45.8671 25.4487L46.1554 24.8284C46.3374 24.4401 46.5754 23.8996 46.8583 23.2566C47.8715 20.9543 49.4598 17.3453 50.4424 16.1319C50.8981 16.8768 51.4592 18.1141 52.0556 19.4291C53.1843 21.9181 54.4362 24.6792 55.4801 25.138C56.5628 25.614 59.3011 25.5221 61.2193 25.4576C61.7095 25.4412 62.1459 25.4266 62.4755 25.4234C63.9746 25.4106 64.9558 25.1851 65.486 24.5976ZM112.078 95.2983C111.505 97.2984 110.793 99.4421 110.426 100.309L70.5361 100.317C70.1203 99.4271 69.3854 97.3237 68.8185 95.3414C68.4095 93.9113 68.09 92.5536 68.0465 91.7844L112.911 91.7804C112.827 92.514 112.489 93.8646 112.078 95.2983ZM117.275 93.9277C117.402 93.435 117.506 93.0338 117.574 92.788C118.55 89.2235 118.682 87.8964 116.829 87.3887C115.831 87.1154 114.237 87.135 111.815 87.1646C110.972 87.1753 110.022 87.1867 108.825 87.1867H69.9265C69.3857 87.1877 68.8296 87.161 68.2823 87.135C66.1258 87.0324 64.1015 86.9355 62.81 88.4382L62.7737 88.4807L62.7573 88.5366C62.5036 89.4084 63.1752 92.4723 64.0922 95.688C65.1917 99.5457 66.6492 103.662 67.2727 104.452L67.2965 104.482L67.3286 104.505C67.8149 104.849 76.0797 104.998 85.4703 105.023C98.0862 105.057 112.794 104.881 113.32 104.656C114.645 104.09 116.457 97.0882 117.275 93.9277ZM127.604 119.721L138.604 119.72L138.577 125.608H127.636L127.604 119.721ZM72.8519 114.549L108.037 114.533L108.097 120.228L72.8757 120.326L72.8519 114.549ZM48.5841 95.2377C48.8445 96.7444 48.7187 98.5443 48.5221 100.238L35.5958 100.313L35.4954 91.8118C36.8877 91.753 40.0442 91.681 42.6229 91.7263C44.3437 91.7566 45.7994 91.8367 46.2711 92.0045C47.6631 92.499 48.3218 93.72 48.5841 95.2377ZM133.451 92.7018C133.802 92.3651 134.303 92.147 135.005 92.033L135.049 92.0259L135.091 92.002C135.455 91.7968 135.421 91.6376 135.333 91.5175C135.384 91.5635 135.528 91.7316 135.798 91.6932L140.242 91.6433C140.636 91.6443 141.122 91.6361 141.61 91.628C142.897 91.6062 144.196 91.5841 145.453 91.737L145.589 100.333L132.325 100.455C132.146 99.4025 131.97 97.7915 132.051 96.4244C132.108 95.4589 132.29 94.6288 132.683 94.2515L132.742 94.1952L132.759 94.1147C132.887 93.5037 133.101 93.0377 133.451 92.7018ZM144.842 80.0025C145.526 82.0638 145.743 84.4833 145.374 87.1368C143.846 87.2576 142.233 87.2244 140.634 87.1917C136.569 87.1079 132.592 87.026 130.104 89.4508C128.855 90.6692 128.069 93.1717 127.734 95.8936C127.365 98.9012 127.54 102.199 128.243 104.32L128.287 104.454L128.422 104.492C130.911 105.19 137.261 105.06 142.018 104.964C143.302 104.938 144.467 104.914 145.452 104.91L145.454 115.13H112.819C112.596 109.584 111.697 109.629 107.536 109.839C106.646 109.884 105.596 109.936 104.336 109.936H77.0331C75.821 109.936 74.8541 109.919 74.0187 109.904C71.5358 109.859 70.1602 109.834 69.339 110.331C68.3048 110.957 68.2521 112.259 68.1986 115.13L35.4932 115.124L35.5035 104.929C40.4885 104.724 44.0541 104.875 46.6014 104.983C49.2638 105.096 50.8329 105.162 51.7973 104.721C53.2537 104.056 53.2405 102.423 53.2092 98.4502C53.2046 97.8791 53.1996 97.2581 53.1985 96.5858C53.196 95.1155 53.0471 93.8201 52.7061 92.6839C52.3605 91.5332 51.8187 90.5435 51.0342 89.6987C48.4334 86.8981 44.2144 87.015 39.8134 87.1364C38.4058 87.1756 36.9785 87.2148 35.5841 87.1578C35.1295 84.4252 35.3236 82.0699 35.9838 80.0908C36.7395 77.8267 38.1068 76.0503 39.8109 74.7624C42.8958 72.4303 47.6446 72.5589 52.2619 72.6839C53.3186 72.7124 54.3685 72.7409 55.3397 72.7409H125.656C126.632 72.7409 127.684 72.7124 128.742 72.6839C133.355 72.5589 138.068 72.4313 141.188 74.7631C142.842 75.9997 144.11 77.7975 144.842 80.0025ZM7.09908 51.6895C6.11649 51.2624 5.46451 50.4633 5.17807 48.9869L78.2822 48.9477C78.0039 50.4326 77.4275 51.2403 76.5179 51.6728C75.5097 52.1523 74.07 52.2069 72.176 52.2086L11.576 52.2072C9.70343 52.2097 8.1882 52.163 7.09908 51.6895ZM74.9649 43.4272C75.2246 43.6075 75.412 43.9054 75.6262 44.3557L7.84406 44.3614C8.06566 43.9542 8.25446 43.6599 8.50243 43.47C8.81915 43.2281 9.27339 43.1244 10.0836 43.1244H73.2926C74.1483 43.1244 74.6364 43.1996 74.9649 43.4272ZM10.0754 4.88863L73.3378 4.75752L73.3524 38.5125L10.2264 38.5289L10.0754 4.88863ZM129.418 54.5661C130.444 59.0882 131.913 65.5656 131.984 68.139L48.9706 68.1436C49.0048 67.0481 49.3265 65.7473 49.6429 64.469C50.0216 62.9395 50.3925 61.44 50.2749 60.2846C50.1285 58.8431 49.2849 57.9507 46.9498 58.1879L46.8255 58.2004L46.7564 58.3037C45.6683 59.928 45.3363 61.9516 45.0089 63.9471C44.7681 65.4153 44.5293 66.8685 43.9917 68.1033C43.7594 68.3142 43.1659 68.4867 42.3689 68.7183C39.8244 69.4575 35.3326 70.7625 32.4606 76.4508C30.5532 80.229 30.6761 85.1531 30.7947 89.8972C30.8332 91.448 30.8713 92.9793 30.8375 94.4404C21.3104 94.4008 21.3396 92.1239 21.4522 83.8028C21.4665 82.7596 21.4818 81.6278 21.4818 80.518C21.4818 78.1705 21.4476 75.6282 21.413 73.0587C21.34 67.5935 21.2652 62.0029 21.5238 56.8195C31.9547 56.522 43.8407 56.6179 55.412 56.7108C61.1476 56.7572 66.8063 56.8024 72.1739 56.7992C75.0853 56.7978 77.4763 56.3699 79.2833 55.2961C81.1117 54.2095 82.3348 52.4751 82.8852 49.8722C83.7855 45.6119 82.0155 44.0397 80.3179 42.5312C79.165 41.5069 78.0474 40.5137 77.954 38.655C77.6982 33.556 77.8101 26.9825 77.9227 20.3708C78.0164 14.8528 78.1108 9.30747 77.9929 4.56621C77.8742 -0.206051 75.1103 -0.121971 69.0654 0.0618651C67.7803 0.101055 66.3399 0.144877 64.6904 0.144877H13.8234C5.38257 0.142027 5.38577 0.47336 5.45097 7.37256C5.45668 7.954 5.46274 8.58923 5.46274 9.45425L5.46378 34.8874C5.46484 35.7956 5.49086 36.5127 5.51259 37.107C5.59418 39.3337 5.61021 39.7762 3.86449 41.7959C3.56308 42.1443 3.2061 42.4906 2.83986 42.8458C1.64349 44.0062 0.348816 45.2617 0.283264 47.2048C0.00964355 55.3192 6.11505 56.6873 11.2963 56.8623C12.43 56.9004 13.5191 56.8808 14.4832 56.8633C15.4191 56.8462 16.2357 56.8316 16.8534 56.8751C17.0879 63.0268 17.0177 69.4757 16.9486 75.8348C16.9165 78.799 16.8844 81.7439 16.8834 84.6322C16.8816 90.401 17.5418 93.9918 19.668 96.1619C21.7629 98.3002 25.2383 99.0185 30.861 99.0402C30.8596 104.337 30.3832 112.192 30.8578 117.176C31.1154 119.855 32.8853 119.807 35.0974 119.747C35.914 119.725 36.7968 119.701 37.6754 119.83C37.7299 120.93 37.762 121.898 37.7905 122.761C38.0313 130.041 38.0374 130.22 47.8594 130.22C57.6084 130.22 57.6131 130.057 57.7691 123.906C57.798 122.762 57.8325 121.4 57.9451 119.763L68.1466 119.72C68.1879 120.293 68.195 120.755 68.2014 121.165C68.2193 122.326 68.2314 123.094 68.9019 124.414L68.9539 124.516L69.0643 124.549C70.3216 124.913 80.2741 125.079 90.2084 125.071C100.538 125.063 110.882 124.858 111.473 124.485C112.785 123.653 112.774 123.178 112.742 121.858C112.729 121.328 112.713 120.647 112.795 119.722L122.993 119.741C123.073 121.172 123.105 122.392 123.132 123.442C123.305 130.128 123.308 130.221 133.136 130.221C142.964 130.221 142.966 130.131 143.131 123.576C143.158 122.51 143.19 121.264 143.274 119.795C144.183 119.711 145.035 119.733 145.802 119.753C148.347 119.818 150.032 119.861 150.092 116.441L150.071 87.6242C150.073 82.8045 149.725 78.6265 147.883 75.3018C146.048 71.9913 142.75 69.5498 136.875 68.1995C135.649 63.5224 134.593 57.8302 133.672 52.8663L133.385 51.3162C130.885 37.9008 128.491 37.9677 114.458 38.3604C111.713 38.4373 108.511 38.5267 104.71 38.5267C102.62 38.5267 100.364 38.4754 98.0371 38.4227C93.118 38.3108 87.8851 38.1918 83.7851 38.5235C82.6971 38.6115 81.7914 39.2275 81.3689 39.9775C81.1911 40.2938 81.0967 40.6366 81.1067 40.9782C81.117 41.327 81.2353 41.6698 81.4826 41.9779C82.0223 42.6499 83.1973 43.154 85.2473 43.1458L116.679 43.1266C117.643 43.1276 118.648 43.1169 119.553 43.1073C123.068 43.0706 124.937 43.051 126.046 43.7974C127.292 44.6357 127.693 46.5471 128.548 50.6279L128.657 51.1477C128.835 51.9974 129.106 53.1923 129.418 54.5661Z" fill="#F5F5F5"/>
</svg>
