<svg width="90" height="132" viewBox="0 0 90 132" fill="none" xmlns="http://www.w3.org/2000/svg">
<path fill-rule="evenodd" clip-rule="evenodd" d="M97.7708 115.348C96.6945 115.853 95.6516 116.621 94.6794 117.712C95.2775 119.154 96.2224 120.453 97.5121 121.458C98.7355 122.412 100.272 123.104 102.122 123.406C105.537 123.964 108.401 122.766 111.044 121.66C111.668 121.4 112.28 121.143 112.891 120.914C112.489 120.207 111.722 119.322 110.699 118.434C109.169 117.107 107.08 115.791 104.794 115.081C102.526 114.377 100.064 114.27 97.7708 115.348ZM78.469 128.975C77.8455 128.175 77.293 127.365 77.2388 127.057C76.9973 125.682 77.3126 124.796 77.9239 124.318C78.2581 124.056 78.6756 123.923 79.1352 123.903C79.577 123.884 80.0591 123.97 80.5422 124.147C82.0677 124.706 83.646 126.192 84.0219 128.158C84.1669 128.917 84.039 129.609 83.7279 130.154C83.5541 130.459 83.3225 130.718 83.0492 130.917C82.7742 131.117 82.4582 131.257 82.1172 131.322C81.5493 131.43 80.9116 131.335 80.2767 130.973C80.002 130.816 79.1801 129.887 78.469 128.975ZM79.6828 89.6102C83.0061 91.3339 86.343 93.0643 88.0791 93.6845L85.8111 77.5647C85.561 76.0701 85.443 75.1916 85.5934 74.4537C85.7473 73.6977 86.1666 73.1366 86.9889 72.289C87.7114 71.5444 88.4136 70.8009 89.1101 70.0634C90.3974 68.7006 91.6657 67.3579 93.0616 66.0101C93.6116 65.4789 94.202 64.9356 94.7977 64.3873C96.5234 62.7994 98.2987 61.1651 99.1356 59.7978C97.3974 58.973 94.9134 58.6841 92.53 58.4072C91.3147 58.2658 90.1252 58.1276 89.0617 57.922C86.6793 57.461 84.9553 57.2543 83.6606 57.0994C81.7531 56.871 80.7506 56.7506 79.9009 56.0925C78.976 55.3761 78.319 54.0707 76.9349 51.3192C76.3182 50.0933 75.5551 48.5763 74.5579 46.6927C74.2946 46.195 73.9579 45.5213 73.5781 44.7603C72.5182 42.6383 71.1202 39.8405 70.2723 38.7421C69.9324 39.1821 69.6737 39.704 69.4225 40.2114C68.9879 41.0885 68.5736 41.9247 67.768 42.3494C67.1709 42.664 66.5792 42.7584 66.0473 42.6775C65.6728 42.6205 65.3283 42.4766 65.0322 42.2617C64.738 42.0476 64.4918 41.7633 64.3129 41.4241C64.0382 40.9025 63.9217 40.252 64.0315 39.5313C64.1241 38.9227 64.8491 37.4203 65.7191 35.8139C66.8553 33.7155 68.2493 31.415 68.7873 30.7253L68.8628 30.628L71.687 30.5286L71.7697 30.6401C73.1039 32.4418 74.1182 34.4797 75.1425 36.5379C75.4443 37.1446 75.7471 37.7531 76.0407 38.3228L82.1653 50.1467C82.9766 51.6972 83.325 51.7446 84.6382 51.9227C84.9799 51.9691 85.3828 52.0239 85.8816 52.1141C86.4388 52.2145 87.7617 52.4297 89.4678 52.7069C95.2437 53.6457 105.429 55.3016 106.201 55.8656C107.794 57.0278 107.324 58.5775 106.281 60.0058C105.531 61.034 104.487 61.9867 103.746 62.6626C103.46 62.9248 103.218 63.1446 103.068 63.3013C102.159 64.2476 101.202 65.2858 100.211 66.3603C97.3653 69.4467 94.2397 72.8362 91.0126 75.4039C90.8904 78.6567 91.7127 82.8649 92.5314 87.0536C93.4121 91.5601 94.2885 96.0441 93.9918 99.3607L93.9839 99.4494L93.9266 99.5139C91.8392 101.864 89.8341 100.723 87.5329 99.4127C86.98 99.0981 86.4089 98.7728 85.8257 98.4928C81.5917 96.4578 78.6016 94.8834 76.3852 93.7163C73.3815 92.1348 71.8085 91.3064 70.5683 91.1297C69.2455 90.9413 68.223 91.5134 66.0779 92.7148C64.9823 93.3283 63.6004 94.1025 61.7331 95.0241L61.0003 95.3861C58.5866 96.5778 56.196 97.7585 53.7245 98.983C53.5749 99.0571 53.3583 99.1747 53.1092 99.3097C51.9246 99.9521 49.9972 100.997 48.5272 100.907C47.2617 100.83 46.3511 99.9817 46.5011 97.5291C46.7056 94.1837 47.3604 90.6007 48.0195 86.9941C48.7082 83.2262 49.4019 79.4319 49.5864 75.871L35.2921 60.9984C35.1553 60.8595 35.0057 60.7237 34.8517 60.5841C34.1139 59.9153 33.2735 59.1533 33.3273 57.8315C33.3632 56.9519 33.6718 56.3761 34.182 55.9793C34.6701 55.5991 35.3338 55.4003 36.1154 55.2571C40.2165 54.505 44.3015 53.8406 48.4328 53.169C49.9014 52.9303 51.3763 52.6902 52.8591 52.4454C53.6557 52.3139 54.296 52.2345 54.8364 52.1679C57.0742 51.8914 57.5281 51.8351 58.8769 49.1588C59.0187 48.8773 59.1512 48.6023 59.2788 48.3369C60.4189 45.968 61.2116 44.321 64.506 45.8423L64.6133 45.8918L64.6478 46.0058C65.3864 48.4413 64.3699 50.1809 63.3029 52.0072C63.0891 52.3727 62.8736 52.7422 62.6798 53.1024C62.5298 53.381 62.4012 53.6246 62.2832 53.8477C61.6327 55.0782 61.2989 55.7092 60.6935 56.1182C60.0647 56.5429 59.2136 56.674 57.4679 56.9423L56.8658 57.0345C56.1792 57.1414 55.2572 57.27 54.1798 57.42C50.0489 57.995 43.6502 58.8864 41.5026 59.7703L53.581 72.2659C55.6441 74.3999 54.7217 79.2876 53.7049 84.6748C53.1384 87.6753 52.5424 90.8333 52.4206 93.7212C54.2379 93.127 57.6307 91.3328 60.986 89.5586C65.0226 87.4238 69.0061 85.3175 70.2751 85.309C71.3753 85.3015 75.5187 87.4505 79.6828 89.6102ZM29.9085 118.388C28.8635 119.283 28.0772 120.183 27.6643 120.908C28.3227 121.153 28.9882 121.435 29.663 121.72C32.2545 122.817 34.9971 123.978 38.4241 123.41C40.2866 123.102 41.8407 122.407 43.0741 121.446C44.3578 120.446 45.2969 119.155 45.8776 117.713C44.9178 116.622 43.8818 115.854 42.808 115.349C40.5425 114.283 38.0952 114.38 35.8315 115.071C33.5492 115.767 31.4526 117.065 29.9085 118.388ZM10.0406 92.4957C9.54362 92.7044 9.05269 92.9104 8.5304 93.1159C9.04165 94.0102 10.1717 95.1239 11.4932 96.1603C13.049 97.3805 14.8592 98.4825 16.2362 98.9905C18.1786 99.707 20.453 99.7041 22.4214 99.1772C24.3435 98.6627 25.9635 97.6527 26.6742 96.3331C26.0333 94.9144 25.1654 93.6817 23.9894 92.7198C22.7816 91.7315 21.245 91.0246 19.2905 90.6883C15.7823 90.0848 12.8146 91.331 10.0406 92.4957ZM8.28814 59.071C7.43594 58.9441 6.57981 58.8583 5.73509 58.8102C5.93888 60.3297 6.54558 62.1748 7.2934 63.8628C8.15949 65.817 9.2073 67.5467 10.0303 68.2998C11.0724 69.2536 13.1804 70.5935 15.4424 71.1254C16.9484 71.4796 18.5181 71.4721 19.8684 70.7417C19.9204 70.3662 19.9542 70.0039 19.9703 69.6551C20.1199 66.377 18.7557 63.9686 16.5903 62.266C14.4003 60.5438 11.3906 59.5338 8.28814 59.071ZM22.8967 43.1449C23.8907 43.7406 25.0557 44.1496 26.4095 44.3042C26.9888 43.6729 27.4067 42.9426 27.6754 42.147C28.2593 40.4198 28.1446 38.3794 27.4584 36.3601C26.7672 34.3261 25.4971 32.3171 23.7756 30.6683C22.3826 29.3337 20.6946 28.236 18.7796 27.5541C18.3642 28.3376 18.0681 29.4623 17.936 30.7652C17.7279 32.8173 17.9285 35.2952 18.7066 37.575C19.479 39.8377 20.8207 41.9012 22.8967 43.1449ZM40.7833 21.6186C41.5717 23.281 42.7488 24.5725 44.0945 25.2465C45.3692 24.6419 46.5378 23.3925 47.3565 21.7782C48.1539 20.2064 48.6167 18.2935 48.5222 16.2952C48.4734 15.2585 48.2386 14.2937 47.9184 13.3959C47.5934 12.4849 47.1834 11.6484 46.7872 10.8738C46.4747 10.2625 46.0405 9.41953 45.5385 8.62397C45.1027 7.93352 44.6179 7.28226 44.1251 6.86506C43.2117 7.92533 42.0641 9.5941 41.1734 11.4307C40.4577 12.9067 39.9101 14.4878 39.7904 15.9389C39.6172 18.0313 40.0152 19.9997 40.7833 21.6186ZM53.3273 119.115C52.6432 118.818 51.9724 118.528 51.3236 118.371C50.9823 118.927 50.6648 119.529 50.3353 120.154C48.5432 123.553 46.3981 127.622 38.4487 128.663C35.9092 128.995 32.609 128.37 29.5258 127.324C25.9339 126.105 22.6188 124.308 21.1378 122.788L21.105 122.755L21.0861 122.712C21.0305 122.59 20.9942 122.453 20.9778 122.305C20.8435 121.117 22.0409 119.01 24.1016 116.842C26.1298 114.708 29.006 112.485 32.2673 111.007C33.9422 110.248 35.72 109.684 37.5387 109.428C37.0767 108.828 36.2875 108.029 35.3812 107.113C33.5873 105.3 31.3432 103.031 30.1611 100.794C29.467 101.195 28.9109 101.593 28.3779 101.975C26.9974 102.962 25.7668 103.843 22.7862 104.412C21.177 104.72 19.484 104.782 17.8426 104.602C16.2244 104.424 14.6551 104.011 13.2635 103.364C11.1305 102.373 7.33723 99.9849 4.7336 97.2376C2.92588 95.3298 1.6825 93.2385 1.92441 91.2872L1.93864 91.1732L2.03342 91.1051C3.40007 90.1176 4.78847 89.2511 6.28481 88.488C7.78186 87.7245 9.39258 87.0611 11.2039 86.4797C13.758 85.6599 15.5176 85.346 17.2719 85.377C18.9332 85.4069 20.5706 85.7457 22.8675 86.2573C22.653 84.844 22.3295 83.4592 21.9953 82.0288C21.5689 80.2029 21.125 78.3014 20.8606 76.1417C20.2874 76.1243 19.6354 76.1599 18.9246 76.1987C15.3509 76.394 10.3182 76.669 5.50421 70.9338C4.25762 69.4485 2.31201 65.8843 1.1014 62.2393C0.212505 59.5633 -0.283757 56.8325 0.172627 54.8199L0.192911 54.7295L0.264513 54.6717C1.32157 53.8213 3.03061 53.5024 4.91814 53.4882C7.4865 53.4686 10.4029 54.0105 12.4159 54.5321C17.2583 55.7869 18.8797 57.3527 20.157 58.5861C20.6094 59.0229 21.017 59.4166 21.5119 59.7311C21.9152 57.2893 22.6573 55.0533 23.3705 52.9039C23.7703 51.7001 24.1611 50.5233 24.4768 49.3512C24.1073 49.1713 23.6727 49.027 23.2042 48.8713C22.5411 48.6511 21.8129 48.4088 21.0804 48.0127C20.5054 47.7013 19.9097 47.3379 19.3571 46.9634C18.8102 46.5929 18.3093 46.2146 17.915 45.8672C16.7646 44.8543 15.8454 43.6751 15.1218 42.3918C12.987 38.6067 12.5662 33.9282 12.8947 29.9532C13.2243 25.9655 14.3205 22.6586 15.1998 21.66C15.3117 21.5331 15.426 21.4359 15.5407 21.3707L15.5757 21.3511L15.6123 21.3429C16.9252 21.0457 18.5826 21.5032 20.2296 22.2663C22.8144 23.4634 25.3981 25.4197 26.5274 26.3474C30.8098 29.8645 31.5808 32.118 32.1344 33.7365C32.3649 34.4098 32.5556 34.9667 32.9607 35.4452C34.5154 33.0001 36.1543 31.6462 37.5591 30.4855C38.319 29.8581 39.0091 29.2877 39.5691 28.6361C39.2257 28.1904 38.8698 27.7657 38.5149 27.3421C36.8052 25.3011 35.1104 23.2778 34.659 18.906C34.4014 16.4135 34.6651 14.2737 35.26 12.3071C35.8525 10.348 36.7742 8.56376 37.8362 6.77386C40.732 1.89507 42.5864 -0.0102694 44.2673 0.0460215C45.9724 0.102669 47.3612 2.12166 49.3887 5.09012C51.2296 7.78495 52.6689 10.5774 53.3355 13.5142C54.0049 16.4623 53.8948 19.5494 52.6315 22.8196C51.0535 26.9036 48.7492 28.5278 45.754 30.6387L45.256 30.9904C38.5816 35.7134 33.5788 42.0273 30.3096 49.11C26.7337 56.8582 25.2328 65.527 25.8887 74.0429C26.5446 82.5575 29.3563 90.9174 34.4046 98.0496C38.8224 104.291 44.9553 109.595 52.8581 113.243C53.3102 113.452 54.1574 113.753 55.0609 114.075C56.4974 114.586 58.0746 115.148 58.5474 115.517C59.1128 115.957 59.4288 116.641 59.4833 117.345C59.5082 117.668 59.4783 117.997 59.3917 118.311C59.3048 118.626 59.1602 118.925 58.9567 119.186C58.5727 119.679 57.9841 120.031 57.1857 120.093C55.8326 120.198 54.5589 119.647 53.3273 119.115ZM119.917 90.9359C117.404 91.5836 115.246 93.2317 113.868 96.3324C114.56 97.626 116.107 98.6161 117.956 99.1412C119.873 99.6852 122.104 99.7251 124.046 99.0856C125.713 98.5366 127.283 97.5636 128.658 96.4781C129.963 95.4484 131.096 94.3134 131.974 93.3407C131.528 92.8142 131.23 92.6927 130.402 92.3553L130.207 92.2748C126.757 90.8618 123.054 90.1279 119.917 90.9359ZM120.576 69.6419C120.592 69.9943 120.626 70.3609 120.68 70.7414C121.36 71.114 122.098 71.3324 122.869 71.4087C124.565 71.5761 126.421 71.0563 128.157 69.9722C129.907 68.8795 131.532 67.2153 132.752 65.1048C133.793 63.3049 134.538 61.1812 134.815 58.8102C133.957 58.8586 133.088 58.9466 132.223 59.077C129.122 59.5448 126.121 60.5606 123.94 62.2813C121.784 63.9833 120.427 66.3845 120.576 69.6419ZM112.538 39.02C112.544 40.7533 113.058 42.489 113.986 44.2779C115.492 44.238 116.821 43.7 117.946 42.9116C119.441 41.8638 120.58 40.3738 121.308 39.0143C122.05 37.6291 122.566 35.1769 122.636 32.7692C122.694 30.778 122.446 28.8292 121.767 27.5634C120.545 28.0212 119.08 28.9443 117.739 30.0024C116.227 31.1952 114.88 32.5544 114.218 33.6086C113.058 35.4576 112.532 37.2426 112.538 39.02ZM96.1123 25.0859C96.2196 25.1422 96.3311 25.196 96.4461 25.2473C97.0504 24.9384 97.5901 24.5643 98.0654 24.1353C99.66 22.6956 100.531 20.6303 100.701 18.3067C100.873 15.9617 100.333 13.3556 99.1043 10.8596C98.422 9.47368 97.5271 8.12163 96.424 6.86684C95.9513 7.2762 95.4967 7.87901 95.087 8.51674C94.6113 9.25849 94.2013 10.0391 93.8902 10.6341C93.6718 11.0523 93.4734 11.4727 93.2946 11.8942C92.0312 14.8694 91.8413 17.7089 92.4213 20.0393C92.9956 22.3472 94.3256 24.1524 96.1123 25.0859ZM90.3827 120.666C90.1016 120.028 89.7846 119.308 89.2185 118.36C88.1585 118.592 86.8364 119.05 85.4712 119.524C84.3201 119.924 83.1387 120.334 82.0471 120.632C80.6002 121.027 79.167 121.265 77.7511 121.5C76.4589 121.715 75.1817 121.928 73.9412 122.251C71.1597 122.975 68.7342 123.903 66.6729 125.096C64.6214 126.284 62.9306 127.736 61.6088 129.514C60.6469 130.808 59.3714 131.346 58.3372 131.258C57.7725 131.209 57.2751 130.977 56.9281 130.58C56.5829 130.185 56.3912 129.635 56.435 128.95C56.5334 127.43 57.8288 125.189 61.3188 122.493C66.6397 118.382 71.3878 117.45 76.4611 116.454C80.6437 115.633 85.0508 114.769 90.1722 112.018C92.4067 110.818 94.5436 109.468 96.4746 108.045C98.3946 106.63 100.11 105.143 101.516 103.659C108.829 95.9422 113.285 85.9242 114.483 75.4723C115.66 65.212 113.697 54.5349 108.218 45.2074C103.341 36.9055 98.7818 33.5687 95.0966 30.8721C92.5827 29.0323 90.4693 27.4861 88.9135 24.8725C87.3562 22.2571 86.7128 19.6306 86.7673 17.0013C86.8218 14.3795 87.5707 11.7599 88.798 9.14841C89.3207 8.03684 89.9178 6.97835 90.558 5.97296C91.1982 4.96791 91.8798 4.01738 92.572 3.12065L92.8684 2.73231C93.3334 2.1213 93.8158 1.48714 94.3409 0.988716C95.5419 -0.150641 96.9346 -0.609875 98.7448 1.29832C101.529 4.23293 103.986 8.01404 105.173 12.1112C106.166 15.5399 106.27 19.1896 104.934 22.7516C104.037 25.1443 103.042 26.2601 102.009 27.4187C101.664 27.8049 101.316 28.1961 100.969 28.6372C101.54 29.2981 102.238 29.8763 103.001 30.5087C104.4 31.6687 106.017 33.0086 107.555 35.4185C107.57 35.4071 107.585 35.3971 107.602 35.3885C107.626 35.3761 107.649 35.3664 107.672 35.3593C107.676 35.3397 107.68 35.3162 107.694 35.293C107.7 35.2873 107.717 35.2556 107.724 35.245C108.106 34.6382 108.321 34.0465 108.55 33.4148C109.163 31.7243 109.877 29.7569 114.024 26.3545C115.123 25.4528 117.747 23.4919 120.344 22.287C121.997 21.5203 123.649 21.0568 124.925 21.3486L125.002 21.3664L125.057 21.4234C126.35 22.7655 127.188 25.865 127.537 29.22C127.912 32.8362 127.724 36.7719 126.925 39.1169C126.254 41.086 125.31 42.7876 124.122 44.2323C122.899 45.7201 121.418 46.9339 119.713 47.8855C118.981 48.2945 118.194 48.5635 117.466 48.8128C116.948 48.9899 116.46 49.157 116.057 49.3533C116.38 50.6013 116.792 51.8433 117.216 53.117C117.906 55.194 118.624 57.3566 119.029 59.7301C119.552 59.3984 119.959 58.9983 120.406 58.559C121.616 57.3705 123.108 55.9048 127.838 54.5991C129.867 54.039 132.852 53.4707 135.484 53.4764C137.436 53.4804 139.204 53.8017 140.279 54.6742L140.313 54.7024L140.337 54.7394C140.357 54.7729 140.377 54.8125 140.396 54.8577C140.743 55.696 140.528 59.2655 139.157 63.2515C137.79 67.2235 135.283 71.6506 131.059 74.2809C130.375 74.707 129.643 75.0864 128.863 75.4096C126.038 76.5796 124.458 76.4342 122.572 76.2611C121.72 76.1831 120.804 76.099 119.677 76.1342C119.424 78.1814 118.987 80.0703 118.57 81.8784C118.223 83.3773 117.889 84.8202 117.687 86.2467C122.448 85.1572 123.993 84.87 129.055 86.3877C130.789 86.9075 132.433 87.5684 133.978 88.3408C135.606 89.1549 137.12 90.0905 138.508 91.1133L138.601 91.1814L138.615 91.2947C138.888 93.4715 138.255 94.1929 137.389 95.1791C137.251 95.3362 137.107 95.5005 136.963 95.675C134.512 98.6553 131.412 101.405 127.848 103.069C124.874 104.457 121.578 105.09 118.069 104.47C114.93 103.917 113.662 103.02 112.225 102.003C111.679 101.617 111.109 101.213 110.389 100.802C109.064 103.221 106.925 105.346 105.202 107.059C104.276 107.979 103.472 108.778 102.997 109.421C105.965 109.775 108.164 110.571 110.018 111.648C111.958 112.776 113.509 114.203 115.17 115.756C118.354 118.733 119.765 120.48 119.567 121.922C119.365 123.385 117.566 124.404 114.328 125.942C110.447 127.785 106.269 128.933 102.277 128.629C98.8937 128.37 95.6481 127.071 92.8342 124.272C91.2976 122.743 90.8976 121.835 90.3827 120.666Z" fill="#F5F5F5"/>
</svg>
