<svg width="90" height="148" viewBox="0 0 90 148" fill="none" xmlns="http://www.w3.org/2000/svg">
<path fill-rule="evenodd" clip-rule="evenodd" d="M52.7993 7.26083C49.8703 6.09523 45.6006 4.39699 43.5377 5.11252C41.4329 5.84155 39.6551 8.66915 38.2059 10.9742C37.7649 11.6754 37.3536 12.3294 36.9816 12.852C36.5005 13.5279 36.0956 14.1457 35.7156 14.7255C34.1531 17.1073 32.9883 18.8839 29.7364 20.2206C26.0796 21.7233 23.2912 22.4827 21.1688 23.06C15.7921 24.5231 14.841 24.7818 14.7156 33.7543C14.706 34.4614 14.6988 35.1163 14.6923 35.729C14.5927 45.0301 14.5927 45.0537 6.73612 55.2365C3.53483 59.3864 4.57113 61.0156 6.9241 64.7129L7.10646 65.0003C8.6352 67.404 9.82172 69.0896 10.7504 70.4086C12.2261 72.5063 13.0648 73.6972 13.5307 75.2657C14.138 77.3095 14.0858 79.9247 13.9645 85.9743L13.9252 87.9524C13.8697 90.8499 14.0408 92.6308 14.7968 93.8671C15.5463 95.0926 16.9079 95.8258 19.2392 96.6324C20.923 97.2148 22.2437 97.6547 23.3844 98.0348C26.9343 99.2181 28.8117 99.8435 30.2786 100.891C31.9287 102.069 33.0116 103.742 35.3059 107.29C35.5589 107.681 35.8216 108.087 36.306 108.832C36.5575 109.218 36.9158 109.773 37.258 110.303C39.6343 113.985 40.7613 115.73 42.4114 116.103C43.9208 116.443 45.9774 115.691 49.8856 114.259C51.0665 113.826 52.4161 113.332 53.9802 112.784C59.2694 110.931 60.1024 111.248 64.5914 112.955L65.5378 113.314C66.6721 113.741 67.6786 114.134 68.5856 114.488C72.3597 115.962 74.3833 116.752 76.0293 116.287C77.9332 115.75 79.4828 113.492 82.8223 108.624L82.9701 108.408C87.709 101.502 88.6168 101.244 94.1067 99.6867C95.8387 99.1953 98.0367 98.5717 100.976 97.5561C105.664 95.9371 105.495 91.3244 105.309 86.2693C105.161 82.2331 105.002 77.923 107.206 74.4987C108.901 71.8641 111.06 69.0062 113.046 66.3766L113.272 66.0766C116.978 61.169 114.452 57.9023 111.32 53.8501C109.838 51.9335 108.223 49.8459 107.037 47.3285C105.689 44.468 105.867 39.7753 106.016 35.8006C106.048 34.946 106.08 34.1251 106.093 33.3767C106.232 26.0005 103.737 25.3204 99.1404 24.068C96.765 23.4207 93.8473 22.6251 90.4508 20.7431C87.5339 19.1283 85.5344 15.6686 83.6417 12.3943C81.5739 8.81664 79.6371 5.46566 76.8503 5.17995C75.1039 5.00127 69.7456 7.05265 67.0151 8.09857C66.5901 8.26123 66.2246 8.40114 65.9844 8.49132C61.027 10.3371 59.8582 9.90385 55.9291 8.44581C55.5186 8.2941 55.0743 8.12891 54.5498 7.94012C54.0726 7.76735 53.4701 7.52715 52.7993 7.26083ZM27.9337 109.394C28.4269 108.6 28.9451 107.767 29.2809 106.786C27.863 104.534 24.0367 103.284 20.2643 102.052C17.3032 101.086 14.3742 100.13 12.5756 98.677C8.79908 95.6269 9.08185 89.4289 9.32767 84.0392C9.46103 81.1333 9.58233 78.4675 9.04249 76.7305C8.67215 75.5404 5.9368 71.5995 4.6105 69.6888L4.16625 69.0475C-2.39779 59.5061 -0.507545 56.9575 5.00574 49.524C6.13201 48.0052 7.41333 46.2783 8.8039 44.2421C10.3608 41.9598 10.2387 38.4099 10.1109 34.7075C9.95588 30.212 9.7928 25.4974 12.5603 22.3268C15.0651 19.457 19.1645 18.3664 22.9064 17.3711C25.6105 16.6522 28.1241 15.9838 29.6384 14.7424C30.9574 13.6602 32.3271 11.4959 33.7892 9.18494C35.8722 5.89212 38.1417 2.30515 40.828 0.957511C45.1508 -1.21186 49.6358 0.732483 53.8669 2.56726C55.9227 3.4581 57.9173 4.32282 59.7811 4.65741C62.1252 5.07797 64.8887 3.92586 67.7951 2.71391C71.6142 1.12101 75.675 -0.572174 79.5302 0.932227C82.6319 2.14249 83.8297 3.9739 85.3624 6.31942C85.5665 6.63125 85.777 6.95236 86.0035 7.29032C86.6148 8.20224 87.2198 9.18241 87.8263 10.166C88.8063 11.7538 89.7904 13.3501 90.8452 14.7129C92.6463 17.0399 95.7881 17.9197 99.0288 18.8266C104.849 20.4557 110.976 22.1708 110.81 32.2777C110.775 34.4243 110.713 36.1453 110.662 37.5714C110.55 40.7049 110.489 42.4048 110.874 43.9067C111.329 45.6842 112.432 47.2551 114.842 50.6879L115.915 52.2201C122.513 61.673 120.259 64.691 115.218 71.4393C114.014 73.0508 112.648 74.8788 111.206 77.0684C109.676 79.3903 109.769 82.8972 109.865 86.5769C109.978 90.8996 110.098 95.4558 107.652 98.8018C105.732 101.428 101.456 102.676 97.2389 103.907C94.8305 104.61 92.4406 105.308 90.5552 106.245C90.6942 107.194 91.3473 108.301 92.0012 109.41C93.0857 111.248 94.1718 113.091 93.1765 114.549C92.2334 115.93 91.2718 115.902 90.3712 115.225C89.3896 114.487 88.5212 112.924 87.8536 111.721C87.6319 111.321 87.4326 110.963 87.2655 110.699C86.839 111.284 86.3562 111.979 85.8404 112.721C84.0249 115.333 81.8061 118.526 80.2291 119.571C76.1731 122.26 73.6699 121.46 70.3216 120.389C69.6452 120.173 68.9327 119.945 68.1542 119.732L79.3744 140.187C80.2267 139.143 81.2735 136.697 82.2648 134.378C83.0432 132.559 83.7879 130.816 84.4025 129.846C85.4107 128.253 89.1694 128.629 92.9949 129.011C94.559 129.168 96.136 129.326 97.5185 129.351C97.0164 128.103 96.2565 126.828 95.5078 125.571C95.0258 124.762 94.5478 123.959 94.1389 123.165C93.4335 121.797 93.4641 120.651 93.881 119.879C94.061 119.546 94.3132 119.283 94.6104 119.101C94.9069 118.919 95.2475 118.818 95.605 118.809C96.442 118.788 97.3763 119.269 98.0519 120.393C98.9243 121.843 99.6401 123.198 100.391 124.622C100.795 125.385 101.207 126.167 101.641 126.96C101.792 127.235 102.01 127.578 102.251 127.954C103.395 129.75 105.025 132.307 103.349 133.85L103.343 133.856C102.073 134.948 98.2206 134.512 94.5293 134.093C91.81 133.786 89.1799 133.487 87.852 133.813C86.7843 135.263 85.6396 137.971 84.5109 140.642C83.5831 142.837 82.6656 145.008 81.794 146.471C80.8268 148.095 79.8002 148.271 78.7518 147.583C77.2415 146.593 75.7497 143.661 74.3351 140.88C73.9824 140.187 73.6346 139.503 73.2674 138.817L63.3784 120.806C63.1278 120.348 62.9004 119.914 62.6723 119.48C62.3501 118.866 62.0272 118.252 61.7364 117.74C61.0696 116.569 60.7451 116.557 59.2645 116.506L59.0782 116.5C57.8209 118.06 55.6584 122.207 54.0099 125.37C53.4757 126.396 52.9945 127.32 52.6194 128.01C51.2609 130.513 50.0101 132.852 48.9007 134.926C44.3386 143.453 42.1897 147.469 40.44 147.946C38.7626 148.403 37.6661 145.923 35.5927 141.234C34.6648 139.135 33.5345 136.579 32.0821 133.654C31.1454 133.702 29.8665 133.813 28.4446 133.936C24.1138 134.31 18.4487 134.8 16.2845 134.017L16.1552 133.971L16.1126 133.832C15.4362 131.607 16.6027 129.712 17.753 127.846C18.0438 127.373 18.3347 126.902 18.5853 126.44C18.9283 125.808 19.3067 125.061 19.6971 124.289C20.4579 122.783 21.2692 121.18 22.0196 120.051C22.6727 119.069 23.5523 118.673 24.3436 118.734C24.7003 118.762 25.0385 118.882 25.3301 119.083C25.6225 119.283 25.8683 119.564 26.0418 119.915C26.4451 120.732 26.4467 121.925 25.6795 123.329C25.3992 123.842 25.0714 124.411 24.7284 125.005C23.8977 126.447 22.9755 128.046 22.4349 129.366C25.7984 129.261 28.1988 129.013 29.9613 128.83C32.4227 128.575 33.6735 128.445 34.6239 129.017C35.6047 129.606 36.1534 130.875 37.2684 133.451C37.9786 135.093 38.9249 137.28 40.3613 140.169C41.5317 138.766 43.5537 134.909 45.0849 131.988C45.6633 130.885 46.1718 129.915 46.5534 129.234L52.3197 118.626C51.665 118.779 50.8697 119.078 49.9812 119.412C45.9276 120.938 40.0038 123.168 35.4264 116.25L32.2717 111.493C31.8612 112.04 31.5543 112.643 31.2699 113.2C30.3541 114.995 29.6536 116.369 26.8243 114.781L26.7223 114.724L26.6893 114.61C26.0627 112.403 26.9528 110.971 27.9337 109.394ZM30.8016 89.3573C31.0434 89.4492 31.3929 89.4542 32.0652 89.4576L32.1271 49.7701L21.1841 49.7861C20.114 52.4342 19.7429 56.2015 19.816 60.0868C19.9084 65.0121 20.7141 70.1145 21.7135 73.3744C22.5626 76.1439 23.7556 79.0026 25.204 81.6777C26.5753 84.212 28.1747 86.5803 29.926 88.5508L29.9709 88.6022C30.3662 89.0463 30.5606 89.2646 30.8016 89.3573ZM36.6916 66.991C36.5511 72.7878 36.3864 79.5715 36.9021 83.0532C44.4816 84.3249 45.9276 85.2394 46.89 85.8496C47.9223 86.5027 48.3657 86.7834 56.4962 86.7834L74.4299 86.8087C76.9154 86.8416 78.2529 86.3789 78.8651 85.7349C79.1205 85.4661 79.2418 85.1644 79.2651 84.8576C79.2892 84.5399 79.2113 84.2095 79.0675 83.8993C78.7245 83.1577 78.0312 82.5424 77.4504 82.4253C76.4936 82.2331 75.9843 82.2803 75.5851 82.3182C74.8548 82.3865 74.4435 82.4253 72.8521 81.3069L72.7469 81.2335L72.7316 81.1029C72.4031 78.3587 73.5398 77.5412 75.1103 77.3347C75.7867 77.2454 76.5451 77.2808 77.293 77.3154C78.2216 77.3583 79.1358 77.4013 79.8098 77.1932C80.7714 76.8973 81.2662 76.009 80.6204 73.6155C80.1633 73.4199 79.3535 73.2969 78.4666 73.162C77.0271 72.9446 75.3923 72.6968 74.507 72.0099C73.6916 71.3778 73.4843 70.4432 74.5142 68.9817C75.2461 67.9434 76.8102 67.9864 78.408 68.0302C80.4203 68.0858 82.4929 68.1423 82.4986 65.8229C82.5042 63.4732 80.3368 63.5179 78.2907 63.56C76.8608 63.5903 75.4838 63.6181 74.7416 62.895C74.3704 62.5326 74.1519 62.1188 74.0595 61.6932C73.9744 61.3013 73.9969 60.9018 74.1053 60.5284C74.213 60.1584 74.405 59.8137 74.6588 59.5263C74.9882 59.1555 75.4228 58.8765 75.9176 58.7577C76.7017 58.5698 78.0176 58.6186 79.2683 58.6642C80.0886 58.6945 80.8798 58.724 81.4574 58.6827C82.6729 58.5967 83.5148 58.0042 83.8915 57.2718C84.0442 56.976 84.1197 56.6583 84.1125 56.3456C84.1052 56.0338 84.0161 55.7245 83.8393 55.4413C83.3951 54.7342 82.4038 54.1889 80.7626 54.1661C75.4935 54.0928 71.476 54.1366 68.433 54.1695C63.4772 54.2234 61.0801 54.2496 60.0156 53.6781C58.8765 53.0671 59.1561 51.9908 59.6975 49.9058C60.0952 48.3769 60.6455 46.2589 60.8696 43.3285C60.9909 41.7373 60.9451 39.9877 60.7756 38.2582C60.5924 36.3973 60.2663 34.5609 59.851 32.9688C59.806 32.7977 59.7698 32.6528 59.7345 32.5061C59.4099 31.193 59.0717 29.826 57.6755 30.0384C56.301 30.2482 56.2488 31.4619 56.1677 33.3396C56.0158 36.8398 55.7732 42.4486 47.5608 48.4115C46.4819 49.1944 45.4576 49.9125 44.4486 50.6196C43.3167 51.4127 42.2041 52.1914 41.0658 53.0283C40.3974 53.518 39.9275 53.8871 39.4768 54.2757C39.0326 54.6575 38.5955 55.0696 37.993 55.6461C36.7157 56.8665 36.7198 56.9785 36.772 58.6119C36.7832 58.9676 36.7969 59.3923 36.8017 59.9182C36.8186 61.7707 36.7583 64.273 36.6916 66.991ZM36.7816 92.0636C36.6475 92.6973 36.3326 93.1069 35.6023 94.0509C43.965 100.764 53.3897 103.595 62.6594 102.797C72.146 101.982 81.4735 97.3656 89.3365 89.2233C90.6492 87.8639 92.0534 85.9608 93.3412 83.9061C94.7141 81.7156 95.9536 79.3541 96.8092 77.296C106.979 52.8336 92.1546 35.1129 88.481 30.7211C87.995 30.1404 87.6937 29.7805 87.6375 29.6077C87.5419 29.3144 87.4881 29.0253 87.4744 28.7497C87.4487 28.2356 87.5604 27.767 87.7917 27.3852C88.0255 26.9992 88.379 26.7034 88.8321 26.5408C89.0393 26.4658 89.2691 26.4194 89.5165 26.4059C91.0468 26.3216 93.109 28.4548 95.1278 31.3237C98.0415 35.4635 100.92 41.1684 101.897 43.7997C103.862 49.0866 104.837 54.8614 104.819 60.6313C104.802 66.3985 103.795 72.1616 101.798 77.4283C100.002 82.1657 97.6197 86.3367 94.8707 89.9321C91.8614 93.8672 88.4087 97.1136 84.8001 99.6547C79.5061 103.382 73.8675 105.743 68.1775 106.877C59.4702 108.611 50.6423 107.469 42.7448 103.945C34.8488 100.42 27.8823 94.5119 22.8952 86.716C19.526 81.4485 17.0606 75.3188 15.8226 68.4803C14.4329 60.8007 15.0482 53.282 17.2132 46.393C19.7469 38.3299 24.4038 31.129 30.4538 25.5404C36.5029 19.9526 43.9466 15.9754 52.0546 14.3606C59.0396 12.9691 66.517 13.3307 74.0186 15.9257C75.2179 16.3403 78.5952 17.5523 81.2767 19.0904C84.1036 20.7128 86.1545 22.7035 84.3294 24.6048C83.6963 25.2656 82.9661 25.3676 82.2455 25.2041C81.5659 25.0507 80.9088 24.6596 80.3601 24.2947C74.4427 20.3588 67.5373 18.503 60.6149 18.492C53.3761 18.481 46.118 20.4852 39.9508 24.2349C36.4008 26.3941 32.3601 29.7982 28.9909 33.8967C26.2684 37.2098 23.9869 40.9754 22.765 44.8987C23.5901 44.8936 24.5685 44.8616 25.6185 44.827C29.4303 44.7006 34.1756 44.5439 36.2554 45.5704L36.3655 45.6252L36.4016 45.744C36.7431 46.8742 36.7792 48.2918 36.8154 49.7052L36.8258 50.1072L47.666 42.1301C51.0376 39.0758 51.2207 35.9431 51.3846 33.1399C51.5019 31.1349 51.6104 29.2917 52.8001 27.7072C53.3673 26.9512 54.7691 25.9415 56.4255 25.4864C57.2313 25.2648 58.0997 25.1712 58.9673 25.2968C59.8421 25.424 60.7137 25.773 61.5139 26.4346C62.6851 27.4013 63.7013 29.038 64.3504 31.6321C64.6862 32.9772 65.0035 34.5634 65.2405 36.1706C65.4526 37.6068 65.5996 39.0597 65.6374 40.3728C65.7041 42.6829 65.4414 44.35 65.1771 46.028C65.0132 47.068 64.8477 48.114 64.7634 49.3183C65.7715 49.3124 67.1244 49.2821 68.67 49.2475C73.8563 49.1321 81.1763 48.9686 83.4802 49.5147C84.7913 49.8257 85.8758 50.4907 86.7008 51.3823C87.4792 52.2243 88.0263 53.2677 88.3107 54.4063C88.5951 55.5416 88.62 56.7721 88.3573 57.9933C88.0464 59.4362 87.333 60.8647 86.1706 62.1028C88.3886 66.3581 86.4903 68.9463 85.2114 70.6909C85.0275 70.9412 84.8564 71.1739 84.7158 71.3896C85.4476 73.3196 85.7336 75.2218 85.4291 76.8746C85.1512 78.3798 84.3896 79.6744 83.0376 80.5964C83.0681 80.7295 83.1107 80.8939 83.1589 81.081C83.7606 83.4046 85.2484 89.1525 78.8474 91.2958C78.0168 91.5747 72.7413 91.7332 66.7878 91.7989C59.0259 91.8832 50.0864 91.8132 48.3753 91.6405C46.7622 91.4778 45.4865 90.7715 44.1361 90.0231C42.2306 88.9679 40.1693 87.8268 36.8089 88.1176C36.8113 88.9755 36.8282 89.6068 36.8411 90.1142C36.8652 91.0598 36.8796 91.6009 36.7816 92.0636ZM25.2739 62.895C24.493 62.6911 23.8303 62.0927 23.6929 61.0729C23.533 59.8845 24.0166 59.0636 24.7212 58.6313C25.0031 58.4585 25.3204 58.3506 25.6458 58.3076C25.9687 58.2647 26.3013 58.2874 26.6154 58.3759C27.4147 58.6001 28.0936 59.2457 28.2125 60.3295C28.3354 61.4471 27.8389 62.2275 27.1328 62.6396C26.854 62.8032 26.5415 62.9068 26.2234 62.9498C25.9053 62.9919 25.5799 62.9742 25.2739 62.895Z" fill="#F5F5F5"/>
</svg>
