<svg width="84" height="150" viewBox="0 0 84 150" fill="none" xmlns="http://www.w3.org/2000/svg">
<path fill-rule="evenodd" clip-rule="evenodd" d="M10.4376 87.898C8.25689 43.2254 53.3203 13.2826 92.7563 29.4074C102.603 33.4333 106.766 37.369 112.768 43.0601C116.287 46.397 114.757 44.8643 118.037 49.0077C124.972 57.7691 129.334 70.177 129.871 82.0548C131.396 115.778 104.903 143.003 73.1226 144.562C39.4082 146.215 11.9824 119.55 10.4376 87.898ZM67.8975 126.632L67.5416 134.426L65.7256 134.348C56.832 134.223 41.1493 127.315 36.8195 121.56C38.0145 119.676 44.3843 115.562 41.7357 112.961C39.0861 110.358 35.02 116.714 33.1435 117.88C26.9148 112.519 19.503 95.2945 20.539 87.3027C23.775 87.2499 30.4319 88.5321 30.1822 84.5583C29.9613 81.0483 23.4693 82.3255 20.4467 82.2543C20.3826 76.7335 22.6243 68.8592 24.6942 64.4945C26.3669 60.9678 30.9439 52.6502 33.5176 51.6399C37.4719 55.0177 40.0345 59.5519 42.2124 56.1563C43.946 53.2958 38.3045 49.789 36.9663 47.878C39.2767 45.0948 45.6451 41.112 49.9496 39.2494C55.6677 36.7758 60.7043 35.4801 67.6987 35.028C67.6987 38.3028 67.2391 42.4238 68.5559 44.5404C73.8575 45.6887 72.6444 41.5054 72.6444 35.028C79.6388 35.4801 84.6757 36.7758 90.3935 39.2494C94.698 41.1117 101.066 45.0941 103.377 47.878C102.039 49.789 96.3971 53.2958 98.1307 56.1563C99.8337 58.8547 101.831 56.4948 103.007 55.2813C104.036 54.2196 105.444 52.8198 106.826 51.6399C109.431 52.6624 114.132 61.2232 115.771 64.7482C117.764 69.0338 119.959 76.8194 119.897 82.2543C115.523 82.3572 107.876 80.795 110.82 86.8274C113.074 87.5877 117.014 87.257 119.804 87.3027C120.368 91.6449 117.348 101.537 115.714 105.015C113.217 110.335 110.371 114.658 107.142 118.07C104.881 116.36 100.883 109.667 97.8492 113.705C96.8314 116.037 101.034 119.081 103.472 121.416C102.847 122.584 103.183 122.001 102.18 122.913L97.7032 126.272C92.4268 129.948 81.7743 134.336 75.48 134.222L72.7948 134.447L72.5693 126.923C72.5561 126.765 72.4827 126.736 72.4392 126.643C71.9451 123.999 68.4237 123.993 67.8975 126.632ZM65.4734 86.402C63.5128 79.5117 73.2936 77.7161 74.869 83.1866C76.862 90.1076 67.0029 91.7753 65.4734 86.402ZM70.1716 75.2567C56.8623 77.4703 58.1331 94.676 70.1716 94.676C75.2566 94.676 79.2967 90.953 79.9865 86.4038C80.8668 80.594 77.0284 76.1467 72.69 75.2567H70.1716ZM15.6623 90.5159C16.6706 100.571 21.7314 112.877 27.9405 119.666C29.3122 121.166 29.9285 122.061 31.0597 123.271C35.9659 128.524 44.106 133.466 51.9369 136.429C58.9561 139.084 67.8469 140.174 76.0101 139.329C104 136.43 128.017 110.871 124.655 78.9627C121.698 50.8999 96.3828 27.0674 64.509 30.2276C36.4016 33.0147 12.4684 58.6581 15.6623 90.5159ZM115.455 38.1895L118.724 34.8174L124.011 39.9427C122.914 41.1259 121.651 42.7142 120.29 43.4107L115.455 38.1895ZM20.1043 43.4574C18.6924 42.7142 17.4295 41.1259 16.4037 40.0144L21.4703 34.8089L24.9119 38.0898L20.1043 43.4574ZM20.0815 29.3023L12.3914 36.8496C11.3379 37.9059 9.65454 39.9556 8.05809 40.0582C5.6928 40.2103 4.35393 37.7677 5.66145 35.7444C6.3633 34.6589 15.6659 24.9462 17.4922 24.7588C20.1813 24.4834 21.2052 27.4878 20.0815 29.3023ZM119.932 28.0547C119.521 25.699 121.457 24.0316 123.72 24.9882C124.55 25.3388 134.804 35.3461 135.147 36.7951C135.699 39.1287 133.582 40.6706 131.327 39.864C131.023 39.7557 120.108 29.0615 119.932 28.0547ZM65.3095 20.0603L65.2222 14.9913H75.034L75.1284 20.1654L65.3095 20.0603ZM55.2912 4.96434L85.1613 5.22905L85.1592 9.97424L55.1807 9.7334L55.2912 4.96434ZM60.1332 15.0048C60.2245 23.6169 60.9445 19.6231 51.4074 22.7566C48.3724 23.7538 45.8236 24.6085 43.0279 25.9701C40.2868 27.3051 37.9714 28.5506 35.5306 30.068L28.6556 34.7519C27.4571 33.6293 25.5008 31.6619 24.8738 30.6729C26.9533 24.8596 23.3318 19.7065 17.8089 19.7111C13.0099 19.7154 9.31501 24.9743 6.55213 27.645C3.94849 30.162 -1.33502 33.9232 0.454893 39.796C1.16459 42.1238 2.89714 43.7766 5.00448 44.5814C8.75745 46.0147 10.5648 44.4008 12.9782 43.4303L16.9781 47.5035C16.2249 49.8524 6.50367 61.4893 5.50362 80.4049C3.5598 117.179 31.4178 149.35 69.7932 149.595C119.651 149.914 149.811 96.5554 127.573 54.8043C126.894 53.5295 126.196 52.2815 125.558 51.2113C124.787 49.9187 123.873 49.0587 123.479 47.3397C125.153 46.3417 125.88 45.1938 127.397 43.7484C129.927 44.0509 131.272 46.133 135.341 44.5839C137.443 43.7837 139.181 42.1149 139.888 39.796C141.709 33.8206 136.29 30.1456 133.602 27.4604C130.966 24.8279 127.117 19.4881 122.162 19.7204C119.161 19.8608 117.134 21.4341 116.11 23.1224C113.849 26.8483 115.224 27.8181 115.472 31.4738L111.767 34.9945C110.348 34.1348 109.514 33.3275 108.358 32.5091C101.62 27.7411 97.1602 25.5134 89.2189 22.8478C79.4713 19.5761 80.1336 23.7352 80.1693 15.0044C84.0369 14.9635 87.1258 15.3422 89.0849 12.9217C90.4669 11.2137 90.571 5.13607 89.6229 2.99701C88.32 0.0574141 85.1795 -0.00600224 81.3923 0.00254828L59.3249 0.00290454C55.5267 -0.00101445 52.328 -0.168106 50.8356 2.74228C49.7579 4.84392 49.8812 10.8728 51.116 12.689C53.0538 15.5378 56.0603 14.9606 60.1332 15.0048Z" fill="#F5F5F5"/>
</svg>
